SolidWorks IGES file using analytic representation for surfaces         S      1
1H,,1H;,23HAxe articulation.SLDPRT,72HF:\Travail\POLYTECH\Robotique\TP01G      1
\dossier étudiant\Axe articulation.IGS,15HSolidWorks 2013,15HSolidWorks G      2
2013,32,308,15,308,15,23HAxe articulation.SLDPRT,1.,2,2HMM,50,0.125,13H1G      3
40702.122909,1E-008,499990.,6HLilian,,11,0,13H140702.122909;            G      4
     314       1       0       0       0                        00000200D      1
     314       0       5       1       0                               0D      2
     502       2       0       0       0                        00010000D      3
     502       0       0       2       1                               0D      4
     100       4       0       0       0                        00010000D      5
     100       0       0       1       0                               0D      6
     124       5       0       0       0                        00000000D      7
     124       0       0       3       0                               0D      8
     100       8       0       0       0               7        00010000D      9
     100       0       0       1       0                               0D     10
     124       9       0       0       0                        00000000D     11
     124       0       0       3       0                               0D     12
     100      12       0       0       0              11        00010000D     13
     100       0       0       1       0                               0D     14
     124      13       0       0       0                        00000000D     15
     124       0       0       2       0                               0D     16
     100      15       0       0       0              15        00010000D     17
     100       0       0       1       0                               0D     18
     110      16       0       0       0                        01010000D     19
     110       0       0       1       0                               0D     20
     124      17       0       0       0                        00000000D     21
     124       0       0       4       0                               0D     22
     100      21       0       0       0              21        00010000D     23
     100       0       0       1       0                               0D     24
     124      22       0       0       0                        00000000D     25
     124       0       0       4       0                               0D     26
     100      26       0       0       0              25        00010000D     27
     100       0       0       1       0                               0D     28
     100      27       0       0       0                        00010000D     29
     100       0       0       1       0                               0D     30
     124      28       0       0       0                        00000000D     31
     124       0       0       3       0                               0D     32
     100      31       0       0       0              31        00010000D     33
     100       0       0       1       0                               0D     34
     100      32       0       0       0                        00010000D     35
     100       0       0       1       0                               0D     36
     110      33       0       0       0                        01010000D     37
     110       0       0       1       0                               0D     38
     100      34       0       0       0                        00010000D     39
     100       0       0       1       0                               0D     40
     124      35       0       0       0                        00000000D     41
     124       0       0       3       0                               0D     42
     100      38       0       0       0              41        00010000D     43
     100       0       0       1       0                               0D     44
     124      39       0       0       0                        00000000D     45
     124       0       0       4       0                               0D     46
     100      43       0       0       0              45        00010000D     47
     100       0       0       1       0                               0D     48
     504      44       0       0       0                        00010000D     49
     504       0       0       3       1                               0D     50
     110      47       0       0       0                        01010000D     51
     110       0       0       1       0                               0D     52
     124      48       0       0       0                        00000000D     53
     124       0       0       3       0                               0D     54
     100      51       0       0       0              53        01010000D     55
     100       0       0       1       0                               0D     56
     120      52       0       0       0                        01010000D     57
     120       0      -1       1       0                               0D     58
     508      53       0       0       0                        00010000D     59
     508       0       0       1       1                               0D     60
     510      54       0       0       0                        00010000D     61
     510       0      -1       1       1                               0D     62
     110      55       0       0       0                        01010000D     63
     110       0       0       1       0                               0D     64
     124      56       0       0       0                        00000000D     65
     124       0       0       2       0                               0D     66
     100      58       0       0       0              65        01010000D     67
     100       0       0       1       0                               0D     68
     120      59       0       0       0                        01010000D     69
     120       0      -1       1       0                               0D     70
     508      60       0       0       0                        00010000D     71
     508       0       0       1       1                               0D     72
     510      61       0       0       0                        00010000D     73
     510       0      -1       1       1                               0D     74
     110      62       0       0       0                        01010000D     75
     110       0       0       1       0                               0D     76
     110      63       0       0       0                        01010000D     77
     110       0       0       1       0                               0D     78
     120      64       0       0       0                        01010000D     79
     120       0      -1       1       0                               0D     80
     508      65       0       0       0                        00010000D     81
     508       0       0       1       1                               0D     82
     510      66       0       0       0                        00010000D     83
     510       0      -1       1       1                               0D     84
     110      67       0       0       0                        01010000D     85
     110       0       0       1       0                               0D     86
     110      68       0       0       0                        01010000D     87
     110       0       0       1       0                               0D     88
     120      69       0       0       0                        01010000D     89
     120       0      -1       1       0                               0D     90
     508      70       0       0       0                        00010000D     91
     508       0       0       1       1                               0D     92
     510      71       0       0       0                        00010000D     93
     510       0      -1       1       1                               0D     94
     116      72       0       0       0                        00010000D     95
     116       0       0       1       0                               0D     96
     123      73       0       0       0                        00010200D     97
     123       0       0       1       0                               0D     98
     123      74       0       0       0                        00010200D     99
     123       0       0       1       0                               0D    100
     190      75       0       0       0                        00010000D    101
     190       0      -1       1       1                               0D    102
     508      76       0       0       0                        00010000D    103
     508       0       0       1       1                               0D    104
     510      77       0       0       0                        00010000D    105
     510       0      -1       1       1                               0D    106
     116      78       0       0       0                        00010000D    107
     116       0       0       1       0                               0D    108
     123      79       0       0       0                        00010200D    109
     123       0       0       1       0                               0D    110
     123      80       0       0       0                        00010200D    111
     123       0       0       1       0                               0D    112
     190      81       0       0       0                        00010000D    113
     190       0      -1       1       1                               0D    114
     508      82       0       0       0                        00010000D    115
     508       0       0       1       1                               0D    116
     510      83       0       0       0                        00010000D    117
     510       0      -1       1       1                               0D    118
     110      84       0       0       0                        01010000D    119
     110       0       0       1       0                               0D    120
     124      85       0       0       0                        00000000D    121
     124       0       0       2       0                               0D    122
     100      87       0       0       0             121        01010000D    123
     100       0       0       1       0                               0D    124
     120      88       0       0       0                        01010000D    125
     120       0      -1       1       0                               0D    126
     508      89       0       0       0                        00010000D    127
     508       0       0       1       1                               0D    128
     510      90       0       0       0                        00010000D    129
     510       0      -1       1       1                               0D    130
     110      91       0       0       0                        01010000D    131
     110       0       0       1       0                               0D    132
     124      92       0       0       0                        00000000D    133
     124       0       0       3       0                               0D    134
     100      95       0       0       0             133        01010000D    135
     100       0       0       1       0                               0D    136
     120      96       0       0       0                        01010000D    137
     120       0      -1       1       0                               0D    138
     508      97       0       0       0                        00010000D    139
     508       0       0       1       1                               0D    140
     510      98       0       0       0                        00010000D    141
     510       0      -1       1       1                               0D    142
     514      99       0       0       0                        00010000D    143
     514       0       0       1       1                               0D    144
     186     100       0       0       0                        00000000D    145
     186       0       0       1       0                               0D    146
314,100.,100.,0.,;                                                     1P      1
502,8,-1.,0.,-9.,2.,0.,8.,-2.,0.,-8.,-1.,0.,9.,2.,0.,-8.,-2.,          3P      2
0.,8.,1.,0.,9.,1.,0.,-9.;                                              3P      3
100,9.,0.,0.,-1.,0.,1.,0.;                                             5P      4
124,-1.,7.105427357601E-015,1.22464679914735E-016,-2.,                 7P      5
1.22464679914735E-016,-6.12323399573685E-017,1.,-8.,                   7P      6
7.105427357601E-015,1.,6.12323399573677E-017,8.00000000000001;         7P      7
100,8.,-1.,0.,0.,0.,-1.,1.;                                            9P      8
124,1.,-7.105427357601E-015,0.,0.,-7.105427357601E-015,-1.,           11P      9
6.98296267768627E-015,-5.58637014214901E-014,                         11P     10
-4.96169340471387E-029,-6.98296267768627E-015,-1.,16.;                11P     11
100,8.,0.,0.,2.,0.,-2.,0.;                                            13P     12
124,1.,0.,0.,0.,0.,6.12323399573677E-017,-1.,8.,0.,1.,                15P     13
6.12323399573677E-017,8.;                                             15P     14
100,8.,1.,0.,2.,0.,1.,1.;                                             17P     15
110,2.,0.,8.,2.,0.,-8.;                                               19P     16
124,1.,-7.47282139734521E-015,1.28274943376909E-030,                  21P     17
1.15447449039219E-029,-7.47282139734521E-015,-1.,                     21P     18
6.98296267768627E-015,6.28466640991764E-014,                          21P     19
-5.08996834809078E-029,-6.98296267768627E-015,-1.,-18.;               21P     20
100,-9.,0.,0.,1.,0.,-1.,0.;                                           23P     21
124,-1.,-6.98296267768627E-015,0.,8.75811540203011E-044,              25P     22
-6.98296267768627E-015,1.,-6.98296267768627E-015,                     25P     23
-6.28466640991764E-014,4.87617677579594E-029,                         25P     24
-6.98296267768627E-015,-1.,-18.;                                      25P     25
100,-9.,0.,0.,1.,0.,-1.,0.;                                           27P     26
100,-8.,0.,0.,-2.,0.,2.,0.;                                           29P     27
124,-6.12323399573676E-017,-1.,1.22464679914735E-016,                 31P     28
-0.999999999999999,6.12323399573677E-017,1.22464679914735E-016,       31P     29
1.,8.,-1.,6.12323399573677E-017,6.12323399573677E-017,-9.;            31P     30
100,-8.,-1.,0.,0.,0.,-1.,1.;                                          33P     31
100,9.,0.,0.,1.,0.,-1.,0.;                                            35P     32
110,-2.,0.,8.,-2.,0.,-8.;                                             37P     33
100,-8.,0.,0.,2.,0.,-2.,0.;                                           39P     34
124,1.40271576953299E-014,1.,0.,0.999999999999986,                    41P     35
-6.12323399573677E-017,8.58915688636046E-031,-1.,-8.,-1.,             41P     36
1.40271576953299E-014,6.12323399573677E-017,-7.;                      41P     37
100,-8.,1.,0.,2.,0.,1.,1.;                                            43P     38
124,-1.,-7.22789203751574E-015,8.55166289179392E-031,                 45P     39
-6.84133031343514E-030,-7.22789203751574E-015,1.,                     45P     40
-6.98296267768627E-015,5.58637014214901E-014,                         45P     41
4.96169340471388E-029,-6.98296267768627E-015,-1.,16.;                 45P     42
100,8.,0.,0.,2.,0.,-2.,0.;                                            47P     43
504,14,5,3,4,3,7,9,3,6,3,4,13,3,2,3,6,17,3,2,3,7,19,3,2,3,5,23,       49P     44
3,8,3,1,27,3,1,3,8,29,3,3,3,5,33,3,1,3,3,35,3,7,3,4,37,3,6,3,3,       49P     45
39,3,5,3,3,43,3,8,3,5,47,3,6,3,2;                                     49P     46
110,0.,0.,8.,0.,0.,1008.;                                             51P     47
124,1.40271576953299E-014,1.,0.,0.999999999999986,                    53P     48
-6.12323399573677E-017,8.58915688636046E-031,1.,-8.,1.,               53P     49
-1.40271576953299E-014,6.12323399573677E-017,7.;                      53P     50
100,8.,1.,0.,2.,0.,1.,1.;                                             55P     51
120,51,55,0.,6.28318530717959;                                        57P     52
508,4,0,49,14,0,0,0,49,2,1,0,0,49,10,0,0,0,49,4,0,0;                  59P     53
510,57,1,1,59;                                                        61P     54
110,0.,0.,-8.,0.,0.,992.;                                             63P     55
124,1.,0.,0.,0.,0.,6.12323399573677E-017,1.,8.,0.,-1.,                65P     56
6.12323399573677E-017,-8.;                                            65P     57
100,-8.,1.,0.,2.,0.,1.,1.;                                            67P     58
120,63,67,0.,6.28318530717959;                                        69P     59
508,4,0,49,7,0,0,0,49,9,1,0,0,49,12,0,0,0,49,13,0,0;                  71P     60
510,69,1,1,71;                                                        73P     61
110,0.,0.,9.,0.,0.,-991.;                                             75P     62
110,-2.,0.,-8.,-2.,0.,8.;                                             77P     63
120,75,77,0.,6.28318530717959;                                        79P     64
508,4,0,49,14,1,0,0,49,5,1,0,0,49,12,1,0,0,49,11,0,0;                 81P     65
510,79,1,1,81;                                                        83P     66
110,0.,0.,9.,0.,0.,-991.;                                             85P     67
110,-2.,0.,-8.,-2.,0.,8.;                                             87P     68
120,85,87,0.,6.28318530717959;                                        89P     69
508,4,0,49,5,0,0,0,49,3,1,0,0,49,11,1,0,0,49,8,1,0;                   91P     70
510,89,1,1,91;                                                        93P     71
116,0.,0.,9.,;                                                        95P     72
123,0.,0.,1.;                                                         97P     73
123,0.707106781,-0.707106781,0.;                                      99P     74
190,95,97,99;                                                        101P     75
508,2,0,49,10,1,0,0,49,1,1,0;                                        103P     76
510,101,1,1,103;                                                     105P     77
116,0.,0.,-9.,;                                                      107P     78
123,0.,0.,1.;                                                        109P     79
123,0.707106781,-0.707106781,0.;                                     111P     80
190,107,109,111;                                                     113P     81
508,2,0,49,6,1,0,0,49,7,1,0;                                         115P     82
510,113,1,1,115;                                                     117P     83
110,0.,0.,-8.,0.,0.,992.;                                            119P     84
124,1.,0.,0.,0.,0.,6.12323399573677E-017,1.,8.,0.,-1.,               121P     85
6.12323399573677E-017,-8.;                                           121P     86
100,-8.,1.,0.,2.,0.,1.,1.;                                           123P     87
120,119,123,0.,6.28318530717959;                                     125P     88
508,4,0,49,9,0,0,0,49,6,0,0,0,49,13,1,0,0,49,8,0,0;                  127P     89
510,125,1,1,127;                                                     129P     90
110,0.,0.,8.,0.,0.,1008.;                                            131P     91
124,1.40271576953299E-014,1.,0.,0.999999999999986,                   133P     92
-6.12323399573677E-017,8.58915688636046E-031,1.,-8.,1.,              133P     93
-1.40271576953299E-014,6.12323399573677E-017,7.;                     133P     94
100,8.,1.,0.,2.,0.,1.,1.;                                            135P     95
120,131,135,0.,6.28318530717959;                                     137P     96
508,4,0,49,2,0,0,0,49,3,0,0,0,49,4,1,0,0,49,1,0,0;                   139P     97
510,137,1,1,139;                                                     141P     98
514,8,61,1,73,1,83,1,93,1,105,1,117,1,129,1,141,1;                   143P     99
186,143,1,0;                                                         145P    100
S      1G      4D    146P    100                                        T      1
