SolidWorks IGES file using analytic representation for surfaces         S      1
1H,,1H;,25HCache en plastique.SLDPRT,74HF:\Travail\POLYTECH\Robotique\TPG      1
01\dossier étudiant\Cache en plastique.IGS,15HSolidWorks 2013,15HSolidWoG      2
rks 2013,32,308,15,308,15,25HCache en plastique.SLDPRT,1.,2,2HMM,50,    G      3
0.125,13H140701.132552,1E-008,499990.,6HLilian,,11,0,13H140701.132552;  G      4
     314       1       0       0       0                        00000200D      1
     314       0       0       1       0                               0D      2
     502       2       0       0       0                        00010000D      3
     502       0       0      16       1                               0D      4
     110      18       0       0       0                        01010000D      5
     110       0       0       1       0                               0D      6
     110      19       0       0       0                        01010000D      7
     110       0       0       2       0                               0D      8
     100      21       0       0       0                        00010000D      9
     100       0       0       1       0                               0D     10
     110      22       0       0       0                        01010000D     11
     110       0       0       2       0                               0D     12
     110      24       0       0       0                        01010000D     13
     110       0       0       1       0                               0D     14
     100      25       0       0       0                        00010000D     15
     100       0       0       1       0                               0D     16
     110      26       0       0       0                        01010000D     17
     110       0       0       1       0                               0D     18
     110      27       0       0       0                        01010000D     19
     110       0       0       1       0                               0D     20
     124      28       0       0       0                        00000000D     21
     124       0       0       5       0                               0D     22
     100      33       0       0       0              21        00010000D     23
     100       0       0       1       0                               0D     24
     100      34       0       0       0                        00010000D     25
     100       0       0       1       0                               0D     26
     124      35       0       0       0                        00000000D     27
     124       0       0       4       0                               0D     28
     100      39       0       0       0              27        00010000D     29
     100       0       0       1       0                               0D     30
     110      40       0       0       0                        01010000D     31
     110       0       0       2       0                               0D     32
     126      42       0       0       0                        01010000D     33
     126       0       0       9       0                               0D     34
     126      51       0       0       0                        01010000D     35
     126       0       0       7       0                               0D     36
     100      58       0       0       0                        00010000D     37
     100       0       0       1       0                               0D     38
     100      59       0       0       0                        00010000D     39
     100       0       0       1       0                               0D     40
     110      60       0       0       0                        01010000D     41
     110       0       0       2       0                               0D     42
     100      62       0       0       0                        00010000D     43
     100       0       0       2       0                               0D     44
     100      64       0       0       0                        00010000D     45
     100       0       0       1       0                               0D     46
     126      65       0       0       0                        01010000D     47
     126       0       0       7       0                               0D     48
     110      72       0       0       0                        01010000D     49
     110       0       0       1       0                               0D     50
     110      73       0       0       0                        01010000D     51
     110       0       0       2       0                               0D     52
     124      75       0       0       0                        00000000D     53
     124       0       0       5       0                               0D     54
     100      80       0       0       0              53        00010000D     55
     100       0       0       1       0                               0D     56
     110      81       0       0       0                        01010000D     57
     110       0       0       1       0                               0D     58
     110      82       0       0       0                        01010000D     59
     110       0       0       2       0                               0D     60
     124      84       0       0       0                        00000000D     61
     124       0       0       4       0                               0D     62
     100      88       0       0       0              61        00010000D     63
     100       0       0       1       0                               0D     64
     110      89       0       0       0                        01010000D     65
     110       0       0       1       0                               0D     66
     126      90       0       0       0                        01010000D     67
     126       0       0       7       0                               0D     68
     110      97       0       0       0                        01010000D     69
     110       0       0       1       0                               0D     70
     100      98       0       0       0                        00010000D     71
     100       0       0       1       0                               0D     72
     110      99       0       0       0                        01010000D     73
     110       0       0       2       0                               0D     74
     110     101       0       0       0                        01010000D     75
     110       0       0       2       0                               0D     76
     110     103       0       0       0                        01010000D     77
     110       0       0       1       0                               0D     78
     126     104       0       0       0                        01010000D     79
     126       0       0       9       0                               0D     80
     124     113       0       0       0                        00000000D     81
     124       0       0       5       0                               0D     82
     100     118       0       0       0              81        00010000D     83
     100       0       0       1       0                               0D     84
     110     119       0       0       0                        01010000D     85
     110       0       0       1       0                               0D     86
     100     120       0       0       0                        00010000D     87
     100       0       0       1       0                               0D     88
     110     121       0       0       0                        01010000D     89
     110       0       0       2       0                               0D     90
     126     123       0       0       0                        01010000D     91
     126       0       0       7       0                               0D     92
     110     130       0       0       0                        01010000D     93
     110       0       0       1       0                               0D     94
     110     131       0       0       0                        01010000D     95
     110       0       0       2       0                               0D     96
     110     133       0       0       0                        01010000D     97
     110       0       0       2       0                               0D     98
     124     135       0       0       0                        00000000D     99
     124       0       0       4       0                               0D    100
     100     139       0       0       0              99        00010000D    101
     100       0       0       1       0                               0D    102
     100     140       0       0       0                        00010000D    103
     100       0       0       1       0                               0D    104
     100     141       0       0       0                        00010000D    105
     100       0       0       1       0                               0D    106
     110     142       0       0       0                        01010000D    107
     110       0       0       2       0                               0D    108
     100     144       0       0       0                        00010000D    109
     100       0       0       2       0                               0D    110
     110     146       0       0       0                        01010000D    111
     110       0       0       1       0                               0D    112
     124     147       0       0       0                        00000000D    113
     124       0       0       4       0                               0D    114
     100     151       0       0       0             113        00010000D    115
     100       0       0       1       0                               0D    116
     100     152       0       0       0                        00010000D    117
     100       0       0       2       0                               0D    118
     110     154       0       0       0                        01010000D    119
     110       0       0       2       0                               0D    120
     110     156       0       0       0                        01010000D    121
     110       0       0       2       0                               0D    122
     110     158       0       0       0                        01010000D    123
     110       0       0       2       0                               0D    124
     110     160       0       0       0                        01010000D    125
     110       0       0       1       0                               0D    126
     124     161       0       0       0                        00000000D    127
     124       0       0       4       0                               0D    128
     100     165       0       0       0             127        00010000D    129
     100       0       0       1       0                               0D    130
     110     166       0       0       0                        01010000D    131
     110       0       0       2       0                               0D    132
     100     168       0       0       0                        00010000D    133
     100       0       0       2       0                               0D    134
     100     170       0       0       0                        00010000D    135
     100       0       0       1       0                               0D    136
     100     171       0       0       0                        00010000D    137
     100       0       0       1       0                               0D    138
     504     172       0       0       0                        00010000D    139
     504       0       0      13       1                               0D    140
     110     185       0       0       0                        01010000D    141
     110       0       0       1       0                               0D    142
     110     186       0       0       0                        01010000D    143
     110       0       0       1       0                               0D    144
     120     187       0       0       0                        01010000D    145
     120       0      -1       1       0                               0D    146
     508     188       0       0       0                        00010000D    147
     508       0       0       1       1                               0D    148
     510     189       0       0       0                        00010000D    149
     510       0      -1       1       1                               0D    150
     110     190       0       0       0                        01010000D    151
     110       0       0       1       0                               0D    152
     110     191       0       0       0                        01010000D    153
     110       0       0       1       0                               0D    154
     120     192       0       0       0                        01010000D    155
     120       0      -1       1       0                               0D    156
     508     193       0       0       0                        00010000D    157
     508       0       0       3       1                               0D    158
     510     196       0       0       0                        00010000D    159
     510       0      -1       1       1                               0D    160
     110     197       0       0       0                        01010000D    161
     110       0       0       1       0                               0D    162
     110     198       0       0       0                        01010000D    163
     110       0       0       1       0                               0D    164
     120     199       0       0       0                        01010000D    165
     120       0      -1       1       0                               0D    166
     508     200       0       0       0                        00010000D    167
     508       0       0       2       1                               0D    168
     510     202       0       0       0                        00010000D    169
     510       0      -1       1       1                               0D    170
     116     203       0       0       0                        00010000D    171
     116       0       0       1       0                               0D    172
     123     204       0       0       0                        00010200D    173
     123       0       0       1       0                               0D    174
     123     205       0       0       0                        00010200D    175
     123       0       0       1       0                               0D    176
     190     206       0       0       0                        00010000D    177
     190       0      -1       1       1                               0D    178
     508     207       0       0       0                        00010000D    179
     508       0       0       2       1                               0D    180
     510     209       0       0       0                        00010000D    181
     510       0      -1       1       1                               0D    182
     110     210       0       0       0                        01010000D    183
     110       0       0       1       0                               0D    184
     110     211       0       0       0                        01010000D    185
     110       0       0       1       0                               0D    186
     120     212       0       0       0                        01010000D    187
     120       0      -1       1       0                               0D    188
     508     213       0       0       0                        00010000D    189
     508       0       0       2       1                               0D    190
     510     215       0       0       0                        00010000D    191
     510       0      -1       1       1                               0D    192
     116     216       0       0       0                        00010000D    193
     116       0       0       1       0                               0D    194
     123     217       0       0       0                        00010200D    195
     123       0       0       1       0                               0D    196
     123     218       0       0       0                        00010200D    197
     123       0       0       1       0                               0D    198
     190     219       0       0       0                        00010000D    199
     190       0      -1       1       1                               0D    200
     508     220       0       0       0                        00010000D    201
     508       0       0       1       1                               0D    202
     510     221       0       0       0                        00010000D    203
     510       0      -1       1       1                               0D    204
     110     222       0       0       0                        01010000D    205
     110       0       0       1       0                               0D    206
     110     223       0       0       0                        01010000D    207
     110       0       0       1       0                               0D    208
     120     224       0       0       0                        01010000D    209
     120       0      -1       1       0                               0D    210
     508     225       0       0       0                        00010000D    211
     508       0       0       1       1                               0D    212
     510     226       0       0       0                        00010000D    213
     510       0      -1       1       1                               0D    214
     110     227       0       0       0                        01010000D    215
     110       0       0       1       0                               0D    216
     110     228       0       0       0                        01010000D    217
     110       0       0       1       0                               0D    218
     120     229       0       0       0                        01010000D    219
     120       0      -1       1       0                               0D    220
     508     230       0       0       0                        00010000D    221
     508       0       0       3       1                               0D    222
     510     233       0       0       0                        00010000D    223
     510       0      -1       1       1                               0D    224
     116     234       0       0       0                        00010000D    225
     116       0       0       1       0                               0D    226
     123     235       0       0       0                        00010200D    227
     123       0       0       1       0                               0D    228
     123     236       0       0       0                        00010200D    229
     123       0       0       1       0                               0D    230
     190     237       0       0       0                        00010000D    231
     190       0      -1       1       1                               0D    232
     508     238       0       0       0                        00010000D    233
     508       0       0       2       1                               0D    234
     510     240       0       0       0                        00010000D    235
     510       0      -1       1       1                               0D    236
     116     241       0       0       0                        00010000D    237
     116       0       0       1       0                               0D    238
     123     242       0       0       0                        00010200D    239
     123       0       0       1       0                               0D    240
     123     243       0       0       0                        00010200D    241
     123       0       0       1       0                               0D    242
     190     244       0       0       0                        00010000D    243
     190       0      -1       1       1                               0D    244
     508     245       0       0       0                        00010000D    245
     508       0       0       1       1                               0D    246
     508     246       0       0       0                        00010000D    247
     508       0       0       1       1                               0D    248
     510     247       0       0       0                        00010000D    249
     510       0      -1       1       1                               0D    250
     110     248       0       0       0                        01010000D    251
     110       0       0       1       0                               0D    252
     110     249       0       0       0                        01010000D    253
     110       0       0       1       0                               0D    254
     120     250       0       0       0                        01010000D    255
     120       0      -1       1       0                               0D    256
     508     251       0       0       0                        00010000D    257
     508       0       0       2       1                               0D    258
     510     253       0       0       0                        00010000D    259
     510       0      -1       1       1                               0D    260
     110     254       0       0       0                        01010000D    261
     110       0       0       1       0                               0D    262
     110     255       0       0       0                        01010000D    263
     110       0       0       1       0                               0D    264
     120     256       0       0       0                        01010000D    265
     120       0      -1       1       0                               0D    266
     508     257       0       0       0                        00010000D    267
     508       0       0       1       1                               0D    268
     510     258       0       0       0                        00010000D    269
     510       0      -1       1       1                               0D    270
     116     259       0       0       0                        00010000D    271
     116       0       0       1       0                               0D    272
     123     260       0       0       0                        00010200D    273
     123       0       0       1       0                               0D    274
     123     261       0       0       0                        00010200D    275
     123       0       0       1       0                               0D    276
     190     262       0       0       0                        00010000D    277
     190       0      -1       1       1                               0D    278
     508     263       0       0       0                        00010000D    279
     508       0       0       1       1                               0D    280
     510     264       0       0       0                        00010000D    281
     510       0      -1       1       1                               0D    282
     116     265       0       0       0                        00010000D    283
     116       0       0       1       0                               0D    284
     123     266       0       0       0                        00010200D    285
     123       0       0       1       0                               0D    286
     123     267       0       0       0                        00010200D    287
     123       0       0       1       0                               0D    288
     190     268       0       0       0                        00010000D    289
     190       0      -1       1       1                               0D    290
     508     269       0       0       0                        00010000D    291
     508       0       0       2       1                               0D    292
     510     271       0       0       0                        00010000D    293
     510       0      -1       1       1                               0D    294
     116     272       0       0       0                        00010000D    295
     116       0       0       1       0                               0D    296
     123     273       0       0       0                        00010200D    297
     123       0       0       1       0                               0D    298
     123     274       0       0       0                        00010200D    299
     123       0       0       1       0                               0D    300
     190     275       0       0       0                        00010000D    301
     190       0      -1       1       1                               0D    302
     508     276       0       0       0                        00010000D    303
     508       0       0       2       1                               0D    304
     510     278       0       0       0                        00010000D    305
     510       0      -1       1       1                               0D    306
     116     279       0       0       0                        00010000D    307
     116       0       0       1       0                               0D    308
     123     280       0       0       0                        00010200D    309
     123       0       0       1       0                               0D    310
     123     281       0       0       0                        00010200D    311
     123       0       0       1       0                               0D    312
     190     282       0       0       0                        00010000D    313
     190       0      -1       1       1                               0D    314
     508     283       0       0       0                        00010000D    315
     508       0       0       1       1                               0D    316
     510     284       0       0       0                        00010000D    317
     510       0      -1       1       1                               0D    318
     116     285       0       0       0                        00010000D    319
     116       0       0       1       0                               0D    320
     123     286       0       0       0                        00010200D    321
     123       0       0       1       0                               0D    322
     123     287       0       0       0                        00010200D    323
     123       0       0       1       0                               0D    324
     190     288       0       0       0                        00010000D    325
     190       0      -1       1       1                               0D    326
     508     289       0       0       0                        00010000D    327
     508       0       0       2       1                               0D    328
     510     291       0       0       0                        00010000D    329
     510       0      -1       1       1                               0D    330
     116     292       0       0       0                        00010000D    331
     116       0       0       1       0                               0D    332
     123     293       0       0       0                        00010200D    333
     123       0       0       1       0                               0D    334
     123     294       0       0       0                        00010200D    335
     123       0       0       1       0                               0D    336
     190     295       0       0       0                        00010000D    337
     190       0      -1       1       1                               0D    338
     508     296       0       0       0                        00010000D    339
     508       0       0       2       1                               0D    340
     510     298       0       0       0                        00010000D    341
     510       0      -1       1       1                               0D    342
     116     299       0       0       0                        00010000D    343
     116       0       0       1       0                               0D    344
     123     300       0       0       0                        00010200D    345
     123       0       0       1       0                               0D    346
     123     301       0       0       0                        00010200D    347
     123       0       0       1       0                               0D    348
     190     302       0       0       0                        00010000D    349
     190       0      -1       1       1                               0D    350
     508     303       0       0       0                        00010000D    351
     508       0       0       2       1                               0D    352
     510     305       0       0       0                        00010000D    353
     510       0      -1       1       1                               0D    354
     116     306       0       0       0                        00010000D    355
     116       0       0       1       0                               0D    356
     123     307       0       0       0                        00010200D    357
     123       0       0       1       0                               0D    358
     123     308       0       0       0                        00010200D    359
     123       0       0       1       0                               0D    360
     190     309       0       0       0                        00010000D    361
     190       0      -1       1       1                               0D    362
     508     310       0       0       0                        00010000D    363
     508       0       0       2       1                               0D    364
     510     312       0       0       0                        00010000D    365
     510       0      -1       1       1                               0D    366
     116     313       0       0       0                        00010000D    367
     116       0       0       1       0                               0D    368
     123     314       0       0       0                        00010200D    369
     123       0       0       1       0                               0D    370
     123     315       0       0       0                        00010200D    371
     123       0       0       1       0                               0D    372
     190     316       0       0       0                        00010000D    373
     190       0      -1       1       1                               0D    374
     508     317       0       0       0                        00010000D    375
     508       0       0       1       1                               0D    376
     510     318       0       0       0                        00010000D    377
     510       0      -1       1       1                               0D    378
     514     319       0       0       0                        00010000D    379
     514       0       0       3       1                               0D    380
     186     322       0       0       0                        00000000D    381
     186       0       0       1       0                               0D    382
314,0.,50.1960784313725,75.2941176470588,;                             1P      1
502,39,-21.4,0.,18.,5.,20.499024367,10.5,20.519988901,                 3P      2
-6.073718424,18.,-5.,20.499024367,10.5,-5.,20.807690886,18.,           3P      3
15.252675855,-14.579639202,18.,15.252675855,-14.579639202,10.5,        3P      4
15.519988901,-14.733972462,18.,-20.519988901,-6.073718424,18.,         3P      5
-21.1,0.,18.,5.,21.834834554,10.5,-5.,21.834834554,10.5,               3P      6
20.252675855,-5.919385165,10.5,-15.519988901,-14.733972462,18.,        3P      7
22.4,0.,17.,-20.252675855,-5.919385165,10.5,21.1,0.,0.,-5.,            3P      8
21.834834554,17.,21.1,0.,18.,-21.1,0.,0.,16.409521411,                 3P      9
-15.247544296,17.,21.409521411,-6.587290258,10.5,-20.252675855,        3P     10
-5.919385165,18.,-15.252675855,-14.579639202,10.5,21.409521411,        3P     11
-6.587290258,17.,-16.409521411,-15.247544296,10.5,-22.4,0.,0.,         3P     12
-21.409521411,-6.587290258,17.,20.252675855,-5.919385165,18.,          3P     13
16.409521411,-15.247544296,10.5,5.,21.834834554,17.,5.,                3P     14
20.499024367,18.,-16.409521411,-15.247544296,17.,22.4,0.,0.,           3P     15
-21.409521411,-6.587290258,10.5,-5.,20.499024367,18.,-22.4,0.,         3P     16
17.,-15.252675855,-14.579639202,18.,5.,20.807690886,18.;               3P     17
110,5.,20.499024367,18.,5.,20.499024367,10.5;                          5P     18
110,-20.252675855,-5.919385165,18.,-20.519988901,-6.073718424,         7P     19
18.;                                                                   7P     20
100,18.,0.,0.,-21.4,0.,-20.519988901,-6.073718424;                     9P     21
110,-15.519988901,-14.733972462,18.,-15.252675855,                    11P     22
-14.579639202,18.;                                                    11P     23
110,-22.4,0.,17.,-22.4,0.,0.;                                         13P     24
100,0.,0.,0.,-21.1,0.,21.1,0.;                                        15P     25
110,-21.4,0.,18.,-22.4,0.,17.;                                        17P     26
110,-5.,20.499024367,10.5,-5.,20.499024367,18.;                       19P     27
124,-0.732567920142118,-0.680693941781952,                            21P     28
-2.05351794728572E-015,2.15619384465001E-014,                         21P     29
-0.680693941781952,0.732567920142118,6.67419147149187E-015,           21P     30
-7.00790104506646E-014,-3.03874032931967E-015,                        21P     31
6.28711579095896E-015,-1.,21.;                                        21P     32
100,10.5,0.,0.,22.4,0.,20.167857143,9.747693997;                      23P     33
100,18.,0.,0.,21.1,0.,5.,20.499024367;                                25P     34
124,-1.,-5.55111512312578E-017,6.80677833767626E-015,                 27P     35
-1.15715231740496E-013,0.,1.,1.55869702626926E-015,                   27P     36
-2.64978494465773E-014,-6.80677833767626E-015,                        27P     37
1.55869702626926E-015,-1.,34.;                                        27P     38
100,17.,0.,0.,22.4,0.,5.,21.834834554;                                29P     39
110,-20.252675855,-5.919385165,10.5,-21.409521411,-6.587290258,       31P     40
10.5;                                                                 31P     41
126,6,3,1,0,1,0,0.00595836266263139,0.00595836266263139,              33P     42
0.00595836266263139,0.00595836266263139,0.00681578525314453,          33P     43
0.00681578525314453,0.00681578525314453,0.00739189517337709,          33P     44
0.00739189517337709,0.00739189517337709,0.00739189517337709,1.,       33P     45
1.,1.,1.,1.,1.,1.,-5.,21.834834554,17.,-5.,21.630172282,              33P     46
17.19949852,-5.,21.425440197,17.398925449,-5.,21.220632312,           33P     47
17.598274478,-5.,21.083020078,17.732218859,-5.,20.9453736,            33P     48
17.866128068,-5.,20.807690886,18.,0.00595836266263139,                33P     49
0.00739189517337709,0.,0.,0.;                                         33P     50
126,3,3,1,0,1,0,2.8652650972297E-007,2.8652650972297E-007,            35P     51
2.8652650972297E-007,2.8652650972297E-007,0.00143382205625717,        35P     52
0.00143382205625717,0.00143382205625717,0.00143382205625717,1.,       35P     53
1.,1.,1.,21.409521411,-6.587290258,17.,21.113187739,                  35P     54
-6.416201933,17.333543329,20.816685288,-6.245016163,                  35P     55
17.666886879,20.519988901,-6.073718424,18.,                           35P     56
2.8652650972297E-007,0.00143382205625717,0.,0.,0.;                    35P     57
100,18.,0.,0.,20.252675855,-5.919385165,21.1,0.;                      37P     58
100,0.,0.,0.,-22.4,0.,22.4,0.;                                        39P     59
110,20.252675855,-5.919385165,10.5,20.252675855,-5.919385165,         41P     60
18.;                                                                  41P     61
100,10.5,0.,0.,-20.252675855,-5.919385165,-15.252675855,              43P     62
-14.579639202;                                                        43P     63
100,18.,0.,0.,-5.,20.807690886,-21.4,0.;                              45P     64
126,3,3,1,0,1,0,2.8652650972266E-007,2.8652650972266E-007,            47P     65
2.8652650972266E-007,2.8652650972266E-007,0.00143382205625716,        47P     66
0.00143382205625716,0.00143382205625716,0.00143382205625716,1.,       47P     67
1.,1.,1.,-16.409521411,-15.247544296,17.,-16.113187739,               47P     68
-15.07645597,17.333543329,-15.816685288,-14.905270201,                47P     69
17.666886879,-15.519988901,-14.733972462,18.,                         47P     70
2.8652650972266E-007,0.00143382205625716,0.,0.,0.;                    47P     71
110,-5.,21.834834554,17.,-5.,21.834834554,10.5;                       49P     72
110,21.409521411,-6.587290258,10.5,20.252675855,-5.919385165,         51P     73
10.5;                                                                 51P     74
124,0.732567920142109,-0.680693941781962,                             53P     75
-4.75326039039059E-015,8.08054266366399E-014,                         53P     76
-0.680693941781962,-0.732567920142109,5.1154944452226E-015,           53P     77
-8.69634055687842E-014,-6.9641721561646E-015,                         53P     78
-5.11931574784198E-016,-1.,34.;                                       53P     79
100,17.,0.,0.,22.4,0.,-1.642177941,22.339723624;                      55P     80
110,5.,21.834834554,10.5,5.,21.834834554,17.;                         57P     81
110,15.252675855,-14.579639202,18.,15.519988901,-14.733972462,        59P     82
18.;                                                                  59P     83
124,0.223214285714285,0.974769399731578,8.55166289179392E-031,        61P     84
-1.05867263659818E-029,0.974769399731578,-0.223214285714285,          61P     85
-6.98296267768627E-015,1.18710365520666E-013,                         61P     86
-6.80677833767626E-015,1.55869702626926E-015,-1.,34.;                 61P     87
100,17.,0.,0.,22.4,0.,5.,21.834834554;                                63P     88
110,21.1,0.,0.,21.1,0.,18.;                                           65P     89
126,3,3,1,0,1,0,2.86896620713925E-007,2.86896620713925E-007,          67P     90
2.86896620713925E-007,2.86896620713925E-007,                          67P     91
0.00143382242636815,0.00143382242636815,0.00143382242636815,          67P     92
0.00143382242636815,1.,1.,1.,1.,-20.519988901,-6.073718424,18.,       67P     93
-20.816685288,-6.245016163,17.666886879,-21.113187739,                67P     94
-6.416201933,17.333543329,-21.409521411,-6.587290258,17.,             67P     95
2.86896620713925E-007,0.00143382242636815,0.,0.,0.;                   67P     96
110,5.,20.499024367,10.5,5.,21.834834554,10.5;                        69P     97
100,10.5,0.,0.,5.,20.499024367,-5.,20.499024367;                      71P     98
110,-21.409521411,-6.587290258,10.5,-21.409521411,-6.587290258,       73P     99
17.;                                                                  73P    100
110,15.252675855,-14.579639202,10.5,16.409521411,-15.247544296,       75P    101
10.5;                                                                 75P    102
110,-5.,20.807690886,18.,-5.,20.499024367,18.;                        77P    103
126,6,3,1,0,1,0,0.00623970891652044,0.00623970891652044,              79P    104
0.00623970891652044,0.00623970891652044,0.00681581621932289,          79P    105
0.00681581621932289,0.00681581621932289,0.00767323491432301,          79P    106
0.00767323491432301,0.00767323491432301,0.00767323491432301,1.,       79P    107
1.,1.,1.,1.,1.,1.,5.,20.807690886,18.,5.,20.9453736,                  79P    108
17.866128068,5.,21.083020078,17.732218859,5.,21.220632312,            79P    109
17.598274478,5.,21.425440197,17.398925449,5.,21.630172282,            79P    110
17.19949852,5.,21.834834554,17.,0.00623970891652044,                  79P    111
0.00767323491432301,0.,0.,0.;                                         79P    112
124,0.955782205856396,-0.294075457949625,                             81P    113
-4.75326039039052E-015,4.99092340991004E-014,                         81P    114
-0.294075457949625,-0.955782205856396,-5.11549444522267E-015,         81P    115
5.3712691674838E-014,-3.03874032931967E-015,                          81P    116
6.28711579095896E-015,-1.,21.;                                        81P    117
100,10.5,0.,0.,22.4,0.,20.167857143,9.747693997;                      83P    118
110,5.,20.499024367,18.,5.,20.807690886,18.;                          85P    119
100,0.,0.,0.,22.4,0.,-22.4,0.;                                        87P    120
110,-15.252675855,-14.579639202,10.5,-15.252675855,                   89P    121
-14.579639202,18.;                                                    89P    122
126,3,3,1,0,1,0,2.86896620711461E-007,2.86896620711461E-007,          91P    123
2.86896620711461E-007,2.86896620711461E-007,                          91P    124
0.00143382242636816,0.00143382242636816,0.00143382242636816,          91P    125
0.00143382242636816,1.,1.,1.,1.,15.519988901,-14.733972462,18.,       91P    126
15.816685288,-14.905270201,17.666886879,16.113187739,                 91P    127
-15.07645597,17.333543329,16.409521411,-15.247544296,17.,             91P    128
2.86896620711461E-007,0.00143382242636816,0.,0.,0.;                   91P    129
110,-21.1,0.,0.,-21.1,0.,18.;                                         93P    130
110,-16.409521411,-15.247544296,10.5,-15.252675855,                   95P    131
-14.579639202,10.5;                                                   95P    132
110,20.519988901,-6.073718424,18.,20.252675855,-5.919385165,          97P    133
18.;                                                                  97P    134
124,-0.223214285714286,0.974769399731578,6.80677833767626E-015,       99P    135
-7.14711725456007E-014,0.974769399731578,0.223214285714286,           99P    136
-1.55869702626926E-015,1.63663187758272E-014,                         99P    137
-3.03874032931976E-015,6.28711579095892E-015,-1.,21.;                 99P    138
100,10.5,0.,0.,22.4,0.,20.167857143,9.747693997;                     101P    139
100,0.,0.,0.,21.1,0.,-21.1,0.;                                       103P    140
100,18.,0.,0.,-5.,20.499024367,-21.1,0.;                             105P    141
110,15.252675855,-14.579639202,18.,15.252675855,-14.579639202,       107P    142
10.5;                                                                107P    143
100,18.,0.,0.,-15.252675855,-14.579639202,15.252675855,              109P    144
-14.579639202;                                                       109P    145
110,-5.,21.834834554,10.5,-5.,20.499024367,10.5;                     111P    146
124,1.,-1.36002320516582E-014,-2.05351794728563E-015,                113P    147
3.49098051038557E-014,-1.36002320516582E-014,-1.,                    113P    148
-6.67419147149189E-015,1.13461255015362E-013,                        113P    149
-2.05351794728554E-015,6.67419147149192E-015,-1.,34.;                113P    150
100,17.,0.,0.,22.4,0.,21.409521411,6.587290258;                      115P    151
100,10.5,0.,0.,15.252675855,-14.579639202,20.252675855,              117P    152
-5.919385165;                                                        117P    153
110,-20.252675855,-5.919385165,18.,-20.252675855,-5.919385165,       119P    154
10.5;                                                                119P    155
110,-16.409521411,-15.247544296,17.,-16.409521411,                   121P    156
-15.247544296,10.5;                                                  121P    157
110,21.409521411,-6.587290258,17.,21.409521411,-6.587290258,         123P    158
10.5;                                                                123P    159
110,22.4,0.,17.,22.4,0.,0.;                                          125P    160
124,-0.955782205856398,-0.294075457949617,0.,                        127P    161
-6.16297582203915E-030,-0.294075457949617,0.955782205856398,         127P    162
6.98296267768627E-015,-1.18710365520666E-013,                        127P    163
-2.05351794728568E-015,6.67419147149188E-015,-1.,34.;                127P    164
100,17.,0.,0.,22.4,0.,21.409521411,6.587290258;                      129P    165
110,16.409521411,-15.247544296,10.5,16.409521411,-15.247544296,      131P    166
17.;                                                                 131P    167
100,18.,0.,0.,-15.519988901,-14.733972462,15.519988901,              133P    168
-14.733972462;                                                       133P    169
100,18.,0.,0.,20.519988901,-6.073718424,5.,20.807690886;             135P    170
100,18.,0.,0.,-21.1,0.,-20.252675855,-5.919385165;                   137P    171
504,59,5,3,32,3,2,7,3,23,3,9,9,3,1,3,9,11,3,14,3,38,13,3,37,3,       139P    172
27,15,3,20,3,17,17,3,1,3,37,19,3,4,3,36,23,3,26,3,35,25,3,19,3,      139P    173
32,29,3,37,3,18,31,3,16,3,35,33,3,18,3,5,35,3,25,3,3,37,3,29,3,      139P    174
19,39,3,27,3,34,41,3,13,3,29,43,3,16,3,24,45,3,5,3,1,47,3,33,3,      139P    175
14,49,3,18,3,12,51,3,22,3,13,55,3,21,3,33,57,3,11,3,31,59,3,6,       139P    176
3,8,63,3,31,3,15,65,3,17,3,19,67,3,9,3,28,69,3,2,3,11,71,3,2,3,      139P    177
4,73,3,35,3,28,75,3,7,3,30,77,3,5,3,36,79,3,39,3,31,83,3,22,3,       139P    178
30,85,3,32,3,39,87,3,34,3,27,89,3,24,3,38,91,3,8,3,21,93,3,20,       139P    179
3,10,95,3,26,3,24,97,3,3,3,29,101,3,12,3,11,103,3,17,3,20,105,       139P    180
3,36,3,10,107,3,6,3,7,109,3,38,3,6,111,3,12,3,4,115,3,15,3,25,       139P    181
117,3,7,3,13,119,3,23,3,16,121,3,33,3,26,123,3,25,3,22,125,3,        139P    182
15,3,34,129,3,28,3,37,131,3,30,3,21,133,3,14,3,8,135,3,3,3,39,       139P    183
137,3,10,3,23;                                                       139P    184
110,0.,0.,1018.,0.,0.,18.;                                           141P    185
110,-22.4,0.,17.,-21.4,0.,18.;                                       143P    186
120,141,143,0.,6.28318530717959;                                     145P    187
508,4,0,139,3,0,0,0,139,7,1,0,0,139,55,0,0,0,139,28,0,0;             147P    188
510,145,1,1,147;                                                     149P    189
110,0.,0.,0.,0.,0.,1000.;                                            151P    190
110,21.1,0.,0.,21.1,0.,18.;                                          153P    191
120,151,153,0.,6.28318530717959;                                     155P    192
508,12,0,139,6,0,0,0,139,40,1,0,0,139,59,1,0,0,139,51,1,0,0,         157P    193
139,18,1,0,0,139,38,1,0,0,139,47,1,0,0,139,46,1,0,0,139,50,1,0,      157P    194
0,139,17,1,0,0,139,15,1,0,0,139,27,0,0;                              157P    195
510,155,1,1,157;                                                     159P    196
110,0.,0.,18.,0.,0.,-982.;                                           161P    197
110,-22.4,0.,0.,-22.4,0.,17.;                                        163P    198
120,161,163,0.,6.28318530717959;                                     165P    199
508,8,0,139,26,1,0,0,139,54,1,0,0,139,37,1,0,0,139,5,0,0,0,139,      167P    200
11,1,0,0,139,21,1,0,0,139,43,1,0,0,139,24,1,0;                       167P    201
510,165,1,1,167;                                                     169P    202
116,0.,0.,18.,;                                                      171P    203
123,0.,0.,1.;                                                        173P    204
123,0.707106781,-0.707106781,0.;                                     175P    205
190,171,173,175;                                                     177P    206
508,5,0,139,42,0,0,0,139,58,1,0,0,139,36,0,0,0,139,10,0,0,0,         179P    207
139,15,0,0;                                                          179P    208
510,177,1,1,179;                                                     181P    209
110,0.,0.,1018.,0.,0.,18.;                                           183P    210
110,-22.4,0.,17.,-21.4,0.,18.;                                       185P    211
120,183,185,0.,6.28318530717959;                                     187P    212
508,5,0,139,14,0,0,0,139,49,0,0,0,139,26,0,0,0,139,34,0,0,0,         189P    213
139,58,0,0;                                                          189P    214
510,187,1,1,189;                                                     191P    215
116,0.,0.,18.,;                                                      193P    216
123,0.,0.,1.;                                                        195P    217
123,0.707106781,-0.707106781,0.;                                     197P    218
190,193,195,197;                                                     199P    219
508,4,0,139,25,0,0,0,139,47,0,0,0,139,4,0,0,0,139,57,1,0;            201P    220
510,199,1,1,201;                                                     203P    221
110,0.,0.,1018.,0.,0.,18.;                                           205P    222
110,-22.4,0.,17.,-21.4,0.,18.;                                       207P    223
120,205,207,0.,6.28318530717959;                                     209P    224
508,4,0,139,39,0,0,0,139,57,0,0,0,139,20,0,0,0,139,23,0,0;           211P    225
510,209,1,1,211;                                                     213P    226
110,0.,0.,18.,0.,0.,-982.;                                           215P    227
110,-22.4,0.,0.,-22.4,0.,17.;                                        217P    228
120,215,217,0.,6.28318530717959;                                     219P    229
508,12,0,139,54,0,0,0,139,49,1,0,0,139,53,1,0,0,139,35,1,0,0,        221P    230
139,56,1,0,0,139,23,1,0,0,139,52,1,0,0,139,9,1,0,0,139,31,1,0,       221P    231
0,139,55,1,0,0,139,5,1,0,0,139,16,1,0;                               221P    232
510,219,1,1,221;                                                     223P    233
116,0.,0.,18.,;                                                      225P    234
123,0.,0.,1.;                                                        227P    235
123,0.707106781,-0.707106781,0.;                                     229P    236
190,225,227,229;                                                     231P    237
508,6,0,139,2,0,0,0,139,59,0,0,0,139,45,0,0,0,139,33,0,0,0,139,      233P    238
19,1,0,0,139,3,1,0;                                                  233P    239
510,231,1,1,233;                                                     235P    240
116,0.,0.,0.,;                                                       237P    241
123,0.,0.,1.;                                                        239P    242
123,0.707106781,-0.707106781,0.;                                     241P    243
190,237,239,241;                                                     243P    244
508,2,0,139,16,0,0,0,139,37,0,0;                                     245P    245
508,2,0,139,44,1,0,0,139,6,1,0;                                      247P    246
510,243,2,1,245,247;                                                 249P    247
110,0.,0.,0.,0.,0.,1000.;                                            251P    248
110,21.1,0.,0.,21.1,0.,18.;                                          253P    249
120,251,253,0.,6.28318530717959;                                     255P    250
508,8,0,139,40,0,0,0,139,44,0,0,0,139,27,1,0,0,139,10,1,0,0,         257P    251
139,1,1,0,0,139,30,1,0,0,139,8,1,0,0,139,45,1,0;                     257P    252
510,255,1,1,257;                                                     259P    253
110,0.,0.,1018.,0.,0.,18.;                                           261P    254
110,-22.4,0.,17.,-21.4,0.,18.;                                       263P    255
120,261,263,0.,6.28318530717959;                                     265P    256
508,4,0,139,7,0,0,0,139,19,0,0,0,139,13,0,0,0,139,11,0,0;            267P    257
510,265,1,1,267;                                                     269P    258
116,-5.,19.,10.5,;                                                   271P    259
123,0.,0.,-1.;                                                       273P    260
123,-0.707106781,0.707106781,0.;                                     275P    261
190,271,273,275;                                                     277P    262
508,4,0,139,48,1,0,0,139,30,0,0,0,139,29,1,0,0,139,43,0,0;           279P    263
510,277,1,1,279;                                                     281P    264
116,-5.,24.,10.5,;                                                   283P    265
123,-1.,0.,0.;                                                       285P    266
123,0.,-0.707106781,0.707106781;                                     287P    267
190,283,285,287;                                                     289P    268
508,5,0,139,48,0,0,0,139,21,0,0,0,139,13,1,0,0,139,33,1,0,0,         291P    269
139,8,0,0;                                                           291P    270
510,289,1,1,291;                                                     293P    271
116,5.,19.,10.5,;                                                    295P    272
123,1.,0.,0.;                                                        297P    273
123,0.,0.707106781,-0.707106781;                                     299P    274
190,295,297,299;                                                     301P    275
508,5,0,139,36,1,0,0,139,34,1,0,0,139,24,0,0,0,139,29,0,0,0,         303P    276
139,1,0,0;                                                           303P    277
510,301,1,1,303;                                                     305P    278
116,-13.954482672,-13.830127019,10.5,;                               307P    279
123,0.,0.,-1.;                                                       309P    280
123,-0.707106781,0.707106781,0.;                                     311P    281
190,307,309,311;                                                     313P    282
508,4,0,139,41,1,0,0,139,18,0,0,0,139,12,1,0,0,139,9,0,0;            315P    283
510,313,1,1,315;                                                     317P    284
116,-18.284609691,-16.330127019,10.5,;                               319P    285
123,0.5,-0.866025404,0.;                                             321P    286
123,0.511552974,0.295345247,-0.806898221;                            323P    287
190,319,321,323;                                                     325P    288
508,5,0,139,41,0,0,0,139,52,0,0,0,139,20,1,0,0,139,4,1,0,0,139,      327P    289
38,0,0;                                                              327P    290
510,325,1,1,327;                                                     329P    291
116,-18.954482672,-5.169872981,10.5,;                                331P    292
123,-0.5,0.866025404,0.;                                             333P    293
123,-0.511552974,-0.295345247,0.806898221;                           335P    294
190,331,333,335;                                                     337P    295
508,5,0,139,2,1,0,0,139,28,1,0,0,139,31,0,0,0,139,12,0,0,0,139,      339P    296
51,0,0;                                                              339P    297
510,337,1,1,339;                                                     341P    298
116,23.284609691,-7.669872981,10.5,;                                 343P    299
123,0.5,0.866025404,0.;                                              345P    300
123,-0.81325917,0.469535401,0.343723769;                             347P    301
190,343,345,347;                                                     349P    302
508,5,0,139,14,1,0,0,139,42,1,0,0,139,17,0,0,0,139,22,0,0,0,         351P    303
139,53,0,0;                                                          351P    304
510,349,1,1,351;                                                     353P    305
116,13.954482672,-13.830127019,10.5,;                                355P    306
123,-0.5,-0.866025404,0.;                                            357P    307
123,0.81325917,-0.469535401,-0.343723769;                            359P    308
190,355,357,359;                                                     361P    309
508,5,0,139,39,1,0,0,139,56,0,0,0,139,32,0,0,0,139,46,0,0,0,         363P    310
139,25,1,0;                                                          363P    311
510,361,1,1,363;                                                     365P    312
116,18.954482672,-5.169872981,10.5,;                                 367P    313
123,0.,0.,-1.;                                                       369P    314
123,-0.707106781,0.707106781,0.;                                     371P    315
190,367,369,371;                                                     373P    316
508,4,0,139,22,1,0,0,139,50,0,0,0,139,32,1,0,0,139,35,0,0;           375P    317
510,373,1,1,375;                                                     377P    318
514,21,149,1,159,1,169,1,181,1,191,1,203,1,213,1,223,1,235,1,        379P    319
249,1,259,1,269,1,281,1,293,1,305,1,317,1,329,1,341,1,353,1,         379P    320
365,1,377,1;                                                         379P    321
186,379,1,0;                                                         381P    322
S      1G      4D    382P    322                                        T      1
