SolidWorks IGES file using analytic representation for surfaces         S      1
1H,,1H;,25HJoint torique fond.SLDPRT,74HF:\Travail\POLYTECH\Robotique\TPG      1
01\dossier étudiant\Joint torique fond.IGS,15HSolidWorks 2013,15HSolidWoG      2
rks 2013,32,308,15,308,15,25HJoint torique fond.SLDPRT,1.,2,2HMM,50,    G      3
0.125,13H140701.132855,1E-008,499990.,6HLilian,,11,0,13H140701.132855;  G      4
     314       1       0       0       0                        00000200D      1
     314       0       8       1       0                               0D      2
     502       2       0       0       0                        00010000D      3
     502       0       0       2       1                               0D      4
     124       4       0       0       0                        00000000D      5
     124       0       0       3       0                               0D      6
     100       7       0       0       0               5        00010000D      7
     100       0       0       1       0                               0D      8
     124       8       0       0       0                        00000000D      9
     124       0       0       4       0                               0D     10
     100      12       0       0       0               9        00010000D     11
     100       0       0       1       0                               0D     12
     124      13       0       0       0                        00000000D     13
     124       0       0       3       0                               0D     14
     100      16       0       0       0              13        00010000D     15
     100       0       0       1       0                               0D     16
     124      17       0       0       0                        00000000D     17
     124       0       0       4       0                               0D     18
     100      21       0       0       0              17        00010000D     19
     100       0       0       1       0                               0D     20
     124      22       0       0       0                        00000000D     21
     124       0       0       4       0                               0D     22
     100      26       0       0       0              21        00010000D     23
     100       0       0       1       0                               0D     24
     124      27       0       0       0                        00000000D     25
     124       0       0       4       0                               0D     26
     100      31       0       0       0              25        00010000D     27
     100       0       0       1       0                               0D     28
     124      32       0       0       0                        00000000D     29
     124       0       0       4       0                               0D     30
     100      36       0       0       0              29        00010000D     31
     100       0       0       1       0                               0D     32
     124      37       0       0       0                        00000000D     33
     124       0       0       4       0                               0D     34
     100      41       0       0       0              33        00010000D     35
     100       0       0       1       0                               0D     36
     504      42       0       0       0                        00010000D     37
     504       0       0       2       1                               0D     38
     110      44       0       0       0                        01010000D     39
     110       0       0       1       0                               0D     40
     124      45       0       0       0                        00000000D     41
     124       0       0       3       0                               0D     42
     100      48       0       0       0              41        01010000D     43
     100       0       0       1       0                               0D     44
     120      49       0       0       0                        01010000D     45
     120       0      -1       1       0                               0D     46
     508      50       0       0       0                        00010000D     47
     508       0       0       1       1                               0D     48
     510      51       0       0       0                        00010000D     49
     510       0      -1       1       1                               0D     50
     110      52       0       0       0                        01010000D     51
     110       0       0       1       0                               0D     52
     124      53       0       0       0                        00000000D     53
     124       0       0       3       0                               0D     54
     100      56       0       0       0              53        01010000D     55
     100       0       0       1       0                               0D     56
     120      57       0       0       0                        01010000D     57
     120       0      -1       1       0                               0D     58
     508      58       0       0       0                        00010000D     59
     508       0       0       1       1                               0D     60
     510      59       0       0       0                        00010000D     61
     510       0      -1       1       1                               0D     62
     110      60       0       0       0                        01010000D     63
     110       0       0       1       0                               0D     64
     124      61       0       0       0                        00000000D     65
     124       0       0       3       0                               0D     66
     100      64       0       0       0              65        01010000D     67
     100       0       0       1       0                               0D     68
     120      65       0       0       0                        01010000D     69
     120       0      -1       1       0                               0D     70
     508      66       0       0       0                        00010000D     71
     508       0       0       1       1                               0D     72
     510      67       0       0       0                        00010000D     73
     510       0      -1       1       1                               0D     74
     110      68       0       0       0                        01010000D     75
     110       0       0       1       0                               0D     76
     124      69       0       0       0                        00000000D     77
     124       0       0       3       0                               0D     78
     100      72       0       0       0              77        01010000D     79
     100       0       0       1       0                               0D     80
     120      73       0       0       0                        01010000D     81
     120       0      -1       1       0                               0D     82
     508      74       0       0       0                        00010000D     83
     508       0       0       1       1                               0D     84
     510      75       0       0       0                        00010000D     85
     510       0      -1       1       1                               0D     86
     514      76       0       0       0                        00010000D     87
     514       0       0       1       1                               0D     88
     186      77       0       0       0                        00000000D     89
     186       0       0       1       0                               0D     90
314,75.2941176470588,75.2941176470588,75.2941176470588,;               1P      1
502,4,0.,-15.25,14.5,0.,-15.25,16.,0.,-15.25,-14.5,0.,-15.25,          3P      2
-16.;                                                                  3P      3
124,6.12323399573677E-017,-2.27259733437694E-032,-1.,0.,               5P      4
-2.27259733437694E-032,1.,-2.27259733437694E-032,0.,1.,                5P      5
2.27259733437694E-032,6.12323399573677E-017,0.;                        5P      6
100,0.,0.,-15.25,14.5,-15.25,-14.5,-15.25;                             7P      7
124,-6.12323399573677E-017,1.52271744304601E-032,-1.,                  9P      8
-4.84804088174145E-014,1.22464679914735E-016,-1.,                      9P      9
-2.27259733437694E-032,-30.5,-1.,-1.22464679914735E-016,               9P     10
6.12323399573677E-017,-5.03479951861143E-014;                          9P     11
100,0.,0.,-15.25,14.5,-15.25,-14.5,-15.25;                            11P     12
124,6.12323399573677E-017,-2.27259733437694E-032,-1.,0.,              13P     13
-2.27259733437694E-032,1.,-2.27259733437694E-032,0.,1.,               13P     14
2.27259733437694E-032,6.12323399573677E-017,0.;                       13P     15
100,0.,0.,-15.25,16.,-15.25,-16.,-15.25;                              15P     16
124,1.40271576953299E-014,1.,-2.27259733437694E-032,15.25,            17P     17
-6.12323399573677E-017,8.81641661979816E-031,1.,                      17P     18
4.95060505117005E-014,1.,-1.40271576953299E-014,                      17P     19
6.12323399573677E-017,-15.2500000000003;                              17P     20
100,-15.25,0.,-15.25,0.75,-15.25,-0.75,-15.25;                        19P     21
124,-6.12323399573677E-017,1.52271744304601E-032,-1.,                 21P     22
-4.85722573273506E-014,1.22464679914735E-016,-1.,                     21P     23
-2.27259733437694E-032,-30.5,-1.,-1.22464679914735E-016,              21P     24
6.12323399573677E-017,-5.04398436960503E-014;                         21P     25
100,0.,0.,-15.25,16.,-15.25,-16.,-15.25;                              23P     26
124,6.12323399573677E-017,-1.,-2.27259733437694E-032,-15.25,          25P     27
6.12323399573677E-017,-1.89765738871147E-032,1.,                      25P     28
4.95060505117005E-014,-1.,-6.12323399573677E-017,                     25P     29
6.12323399573677E-017,-15.25;                                         25P     30
100,-15.25,0.,-15.25,0.75,-15.25,-0.75,-15.25;                        27P     31
124,1.40271576953299E-014,1.,2.27259733437694E-032,15.25,             29P     32
-6.12323399573677E-017,8.81641661979816E-031,-1.,                     29P     33
-4.93731876189775E-014,-1.,1.40271576953299E-014,                     29P     34
6.12323399573677E-017,15.2500000000002;                               29P     35
100,15.25,0.,-15.25,0.75,-15.25,-0.75,-15.25;                         31P     36
124,6.12323399573677E-017,-1.,2.27259733437694E-032,-15.25,           33P     37
6.12323399573677E-017,-1.89765738871147E-032,-1.,                     33P     38
-4.93731876189775E-014,1.,6.12323399573677E-017,                      33P     39
6.12323399573677E-017,15.25;                                          33P     40
100,15.25,0.,-15.25,0.75,-15.25,-0.75,-15.25;                         35P     41
504,8,7,3,1,3,3,11,3,3,3,1,15,3,2,3,4,19,3,3,3,4,23,3,4,3,2,27,       37P     42
3,4,3,3,31,3,1,3,2,35,3,2,3,1;                                        37P     43
110,0.,-15.25,0.,-1000.,-15.25,0.;                                    39P     44
124,-1.60812264967664E-016,-1.,0.,-15.25,6.12323399573677E-017,       41P     45
-9.84691127781427E-033,1.,-30.5,-1.,1.60812264967664E-016,            41P     46
6.12323399573677E-017,15.25;                                          41P     47
100,15.25,0.,-15.25,0.75,-15.25,-0.75,-15.25;                         43P     48
120,39,43,0.,6.28318530717959;                                        45P     49
508,4,0,37,6,0,0,0,37,5,1,0,0,37,8,1,0,0,37,2,0,0;                    47P     50
510,45,1,1,47;                                                        49P     51
110,0.,-15.25,0.,-1000.,-15.25,0.;                                    51P     52
124,-1.60812264967664E-016,-1.,0.,-15.25,6.12323399573677E-017,       53P     53
-9.84691127781427E-033,1.,-30.5,-1.,1.60812264967664E-016,            53P     54
6.12323399573677E-017,15.25;                                          53P     55
100,15.25,0.,-15.25,0.75,-15.25,-0.75,-15.25;                         55P     56
120,51,55,0.,6.28318530717959;                                        57P     57
508,4,0,37,8,0,0,0,37,3,1,0,0,37,6,1,0,0,37,1,0,0;                    59P     58
510,57,1,1,59;                                                        61P     59
110,0.,-15.25,0.,-1000.,-15.25,0.;                                    63P     60
124,1.40271576953299E-014,1.,0.,15.25,-6.12323399573677E-017,         65P     61
8.58915688636046E-031,1.,-30.5,1.,-1.40271576953299E-014,             65P     62
6.12323399573677E-017,15.2499999999997;                               65P     63
100,15.25,0.,-15.25,0.75,-15.25,-0.75,-15.25;                         67P     64
120,63,67,0.,6.28318530717959;                                        69P     65
508,4,0,37,3,0,0,0,37,7,0,0,0,37,1,1,0,0,37,4,1,0;                    71P     66
510,69,1,1,71;                                                        73P     67
110,0.,-15.25,0.,-1000.,-15.25,0.;                                    75P     68
124,1.40271576953299E-014,1.,0.,15.25,-6.12323399573677E-017,         77P     69
8.58915688636046E-031,1.,-30.5,1.,-1.40271576953299E-014,             77P     70
6.12323399573677E-017,15.2499999999997;                               77P     71
100,15.25,0.,-15.25,0.75,-15.25,-0.75,-15.25;                         79P     72
120,75,79,0.,6.28318530717959;                                        81P     73
508,4,0,37,5,0,0,0,37,4,0,0,0,37,2,1,0,0,37,7,1,0;                    83P     74
510,81,1,1,83;                                                        85P     75
514,4,49,1,61,1,73,1,85,1;                                            87P     76
186,87,1,0;                                                           89P     77
S      1G      4D     90P     77                                        T      1
