SolidWorks IGES file using analytic representation for surfaces         S      1
1H,,1H;,19Hjoint piston.SLDPRT,68HF:\Travail\POLYTECH\Robotique\TP01\dosG      1
sier étudiant\joint piston.IGS,15HSolidWorks 2013,15HSolidWorks 2013,   G      2
32,308,15,308,15,19Hjoint piston.SLDPRT,1.,2,2HMM,50,0.125,13H140701.132G      3
727,1E-008,499990.,6HLilian,,11,0,13H140701.132727;                     G      4
     314       1       0       0       0                        00000200D      1
     314       0       5       1       0                               0D      2
     502       2       0       0       0                        00010000D      3
     502       0       0       6       1                               0D      4
     124       8       0       0       0                        00000000D      5
     124       0       0       2       0                               0D      6
     100      10       0       0       0               5        00010000D      7
     100       0       0       1       0                               0D      8
     124      11       0       0       0                        00000000D      9
     124       0       0       2       0                               0D     10
     100      13       0       0       0               9        00010000D     11
     100       0       0       1       0                               0D     12
     124      14       0       0       0                        00000000D     13
     124       0       0       2       0                               0D     14
     100      16       0       0       0              13        00010000D     15
     100       0       0       1       0                               0D     16
     110      17       0       0       0                        01010000D     17
     110       0       0       1       0                               0D     18
     124      18       0       0       0                        00000000D     19
     124       0       0       3       0                               0D     20
     100      21       0       0       0              19        00010000D     21
     100       0       0       1       0                               0D     22
     110      22       0       0       0                        01010000D     23
     110       0       0       1       0                               0D     24
     124      23       0       0       0                        00000000D     25
     124       0       0       2       0                               0D     26
     100      25       0       0       0              25        00010000D     27
     100       0       0       1       0                               0D     28
     124      26       0       0       0                        00000000D     29
     124       0       0       4       0                               0D     30
     100      30       0       0       0              29        00010000D     31
     100       0       0       1       0                               0D     32
     110      31       0       0       0                        01010000D     33
     110       0       0       1       0                               0D     34
     110      32       0       0       0                        01010000D     35
     110       0       0       1       0                               0D     36
     124      33       0       0       0                        00000000D     37
     124       0       0       2       0                               0D     38
     100      35       0       0       0              37        00010000D     39
     100       0       0       1       0                               0D     40
     124      36       0       0       0                        00000000D     41
     124       0       0       3       0                               0D     42
     100      39       0       0       0              41        00010000D     43
     100       0       0       1       0                               0D     44
     110      40       0       0       0                        01010000D     45
     110       0       0       1       0                               0D     46
     124      41       0       0       0                        00000000D     47
     124       0       0       3       0                               0D     48
     100      44       0       0       0              47        00010000D     49
     100       0       0       1       0                               0D     50
     110      45       0       0       0                        01010000D     51
     110       0       0       1       0                               0D     52
     110      46       0       0       0                        01010000D     53
     110       0       0       1       0                               0D     54
     124      47       0       0       0                        00000000D     55
     124       0       0       3       0                               0D     56
     100      50       0       0       0              55        00010000D     57
     100       0       0       1       0                               0D     58
     124      51       0       0       0                        00000000D     59
     124       0       0       3       0                               0D     60
     100      54       0       0       0              59        00010000D     61
     100       0       0       1       0                               0D     62
     124      55       0       0       0                        00000000D     63
     124       0       0       3       0                               0D     64
     100      58       0       0       0              63        00010000D     65
     100       0       0       1       0                               0D     66
     124      59       0       0       0                        00000000D     67
     124       0       0       3       0                               0D     68
     100      62       0       0       0              67        00010000D     69
     100       0       0       1       0                               0D     70
     110      63       0       0       0                        01010000D     71
     110       0       0       1       0                               0D     72
     124      64       0       0       0                        00000000D     73
     124       0       0       4       0                               0D     74
     100      68       0       0       0              73        00010000D     75
     100       0       0       1       0                               0D     76
     110      69       0       0       0                        01010000D     77
     110       0       0       1       0                               0D     78
     124      70       0       0       0                        00000000D     79
     124       0       0       2       0                               0D     80
     100      72       0       0       0              79        00010000D     81
     100       0       0       1       0                               0D     82
     124      73       0       0       0                        00000000D     83
     124       0       0       3       0                               0D     84
     100      76       0       0       0              83        00010000D     85
     100       0       0       1       0                               0D     86
     110      77       0       0       0                        01010000D     87
     110       0       0       1       0                               0D     88
     110      78       0       0       0                        01010000D     89
     110       0       0       1       0                               0D     90
     124      79       0       0       0                        00000000D     91
     124       0       0       2       0                               0D     92
     100      81       0       0       0              91        00010000D     93
     100       0       0       1       0                               0D     94
     110      82       0       0       0                        01010000D     95
     110       0       0       1       0                               0D     96
     110      83       0       0       0                        01010000D     97
     110       0       0       1       0                               0D     98
     124      84       0       0       0                        00000000D     99
     124       0       0       3       0                               0D    100
     100      87       0       0       0              99        00010000D    101
     100       0       0       1       0                               0D    102
     110      88       0       0       0                        01010000D    103
     110       0       0       1       0                               0D    104
     124      89       0       0       0                        00000000D    105
     124       0       0       2       0                               0D    106
     100      91       0       0       0             105        00010000D    107
     100       0       0       1       0                               0D    108
     124      92       0       0       0                        00000000D    109
     124       0       0       2       0                               0D    110
     100      94       0       0       0             109        00010000D    111
     100       0       0       1       0                               0D    112
     124      95       0       0       0                        00000000D    113
     124       0       0       3       0                               0D    114
     100      98       0       0       0             113        00010000D    115
     100       0       0       1       0                               0D    116
     110      99       0       0       0                        01010000D    117
     110       0       0       1       0                               0D    118
     124     100       0       0       0                        00000000D    119
     124       0       0       3       0                               0D    120
     100     103       0       0       0             119        00010000D    121
     100       0       0       1       0                               0D    122
     110     104       0       0       0                        01010000D    123
     110       0       0       1       0                               0D    124
     124     105       0       0       0                        00000000D    125
     124       0       0       2       0                               0D    126
     100     107       0       0       0             125        00010000D    127
     100       0       0       1       0                               0D    128
     124     108       0       0       0                        00000000D    129
     124       0       0       2       0                               0D    130
     100     110       0       0       0             129        00010000D    131
     100       0       0       1       0                               0D    132
     124     111       0       0       0                        00000000D    133
     124       0       0       2       0                               0D    134
     100     113       0       0       0             133        00010000D    135
     100       0       0       1       0                               0D    136
     124     114       0       0       0                        00000000D    137
     124       0       0       3       0                               0D    138
     100     117       0       0       0             137        00010000D    139
     100       0       0       1       0                               0D    140
     124     118       0       0       0                        00000000D    141
     124       0       0       2       0                               0D    142
     100     120       0       0       0             141        00010000D    143
     100       0       0       1       0                               0D    144
     124     121       0       0       0                        00000000D    145
     124       0       0       2       0                               0D    146
     100     123       0       0       0             145        00010000D    147
     100       0       0       1       0                               0D    148
     504     124       0       0       0                        00010000D    149
     504       0       0      10       1                               0D    150
     110     134       0       0       0                        01010000D    151
     110       0       0       1       0                               0D    152
     110     135       0       0       0                        01010000D    153
     110       0       0       1       0                               0D    154
     120     136       0       0       0                        01010000D    155
     120       0      -1       1       0                               0D    156
     508     137       0       0       0                        00010000D    157
     508       0       0       1       1                               0D    158
     510     138       0       0       0                        00010000D    159
     510       0      -1       1       1                               0D    160
     110     139       0       0       0                        01010000D    161
     110       0       0       1       0                               0D    162
     110     140       0       0       0                        01010000D    163
     110       0       0       1       0                               0D    164
     120     141       0       0       0                        01010000D    165
     120       0      -1       1       0                               0D    166
     508     142       0       0       0                        00010000D    167
     508       0       0       1       1                               0D    168
     510     143       0       0       0                        00010000D    169
     510       0      -1       1       1                               0D    170
     110     144       0       0       0                        01010000D    171
     110       0       0       1       0                               0D    172
     110     145       0       0       0                        01010000D    173
     110       0       0       1       0                               0D    174
     120     146       0       0       0                        01010000D    175
     120       0    -179       1       0                               0D    176
     508     147       0       0       0                        00010000D    177
     508       0       0       1       1                               0D    178
     314     148       0       0       0                        00000200D    179
     314       0       8       1       0                               0D    180
     510     149       0       0       0                        00010000D    181
     510       0    -179       1       1                               0D    182
     110     150       0       0       0                        01010000D    183
     110       0       0       1       0                               0D    184
     110     151       0       0       0                        01010000D    185
     110       0       0       1       0                               0D    186
     120     152       0       0       0                        01010000D    187
     120       0    -191       1       0                               0D    188
     508     153       0       0       0                        00010000D    189
     508       0       0       1       1                               0D    190
     314     154       0       0       0                        00000200D    191
     314       0       8       1       0                               0D    192
     510     155       0       0       0                        00010000D    193
     510       0    -191       1       1                               0D    194
     110     156       0       0       0                        01010000D    195
     110       0       0       1       0                               0D    196
     110     157       0       0       0                        01010000D    197
     110       0       0       1       0                               0D    198
     120     158       0       0       0                        01010000D    199
     120       0    -203       1       0                               0D    200
     508     159       0       0       0                        00010000D    201
     508       0       0       1       1                               0D    202
     314     160       0       0       0                        00000200D    203
     314       0       8       1       0                               0D    204
     510     161       0       0       0                        00010000D    205
     510       0    -203       1       1                               0D    206
     110     162       0       0       0                        01010000D    207
     110       0       0       1       0                               0D    208
     110     163       0       0       0                        01010000D    209
     110       0       0       1       0                               0D    210
     120     164       0       0       0                        01010000D    211
     120       0    -215       1       0                               0D    212
     508     165       0       0       0                        00010000D    213
     508       0       0       1       1                               0D    214
     314     166       0       0       0                        00000200D    215
     314       0       8       1       0                               0D    216
     510     167       0       0       0                        00010000D    217
     510       0    -215       1       1                               0D    218
     110     168       0       0       0                        01010000D    219
     110       0       0       1       0                               0D    220
     110     169       0       0       0                        01010000D    221
     110       0       0       1       0                               0D    222
     120     170       0       0       0                        01010000D    223
     120       0    -227       1       0                               0D    224
     508     171       0       0       0                        00010000D    225
     508       0       0       1       1                               0D    226
     314     172       0       0       0                        00000200D    227
     314       0       8       1       0                               0D    228
     510     173       0       0       0                        00010000D    229
     510       0    -227       1       1                               0D    230
     110     174       0       0       0                        01010000D    231
     110       0       0       1       0                               0D    232
     110     175       0       0       0                        01010000D    233
     110       0       0       1       0                               0D    234
     120     176       0       0       0                        01010000D    235
     120       0    -239       1       0                               0D    236
     508     177       0       0       0                        00010000D    237
     508       0       0       1       1                               0D    238
     314     178       0       0       0                        00000200D    239
     314       0       8       1       0                               0D    240
     510     179       0       0       0                        00010000D    241
     510       0    -239       1       1                               0D    242
     116     180       0       0       0                        00010000D    243
     116       0       0       1       0                               0D    244
     123     181       0       0       0                        00010200D    245
     123       0       0       1       0                               0D    246
     123     182       0       0       0                        00010200D    247
     123       0       0       1       0                               0D    248
     190     183       0       0       0                        00010000D    249
     190       0    -255       1       1                               0D    250
     508     184       0       0       0                        00010000D    251
     508       0       0       1       1                               0D    252
     508     185       0       0       0                        00010000D    253
     508       0       0       1       1                               0D    254
     314     186       0       0       0                        00000200D    255
     314       0       8       1       0                               0D    256
     510     187       0       0       0                        00010000D    257
     510       0    -255       1       1                               0D    258
     110     188       0       0       0                        01010000D    259
     110       0       0       1       0                               0D    260
     110     189       0       0       0                        01010000D    261
     110       0       0       1       0                               0D    262
     120     190       0       0       0                        01010000D    263
     120       0    -267       1       0                               0D    264
     508     191       0       0       0                        00010000D    265
     508       0       0       1       1                               0D    266
     314     192       0       0       0                        00000200D    267
     314       0       8       1       0                               0D    268
     510     193       0       0       0                        00010000D    269
     510       0    -267       1       1                               0D    270
     116     194       0       0       0                        00010000D    271
     116       0       0       1       0                               0D    272
     123     195       0       0       0                        00010200D    273
     123       0       0       1       0                               0D    274
     123     196       0       0       0                        00010200D    275
     123       0       0       1       0                               0D    276
     190     197       0       0       0                        00010000D    277
     190       0    -283       1       1                               0D    278
     508     198       0       0       0                        00010000D    279
     508       0       0       1       1                               0D    280
     508     199       0       0       0                        00010000D    281
     508       0       0       1       1                               0D    282
     314     200       0       0       0                        00000200D    283
     314       0       8       1       0                               0D    284
     510     201       0       0       0                        00010000D    285
     510       0    -283       1       1                               0D    286
     110     202       0       0       0                        01010000D    287
     110       0       0       1       0                               0D    288
     110     203       0       0       0                        01010000D    289
     110       0       0       1       0                               0D    290
     120     204       0       0       0                        01010000D    291
     120       0    -295       1       0                               0D    292
     508     205       0       0       0                        00010000D    293
     508       0       0       1       1                               0D    294
     314     206       0       0       0                        00000200D    295
     314       0       8       1       0                               0D    296
     510     207       0       0       0                        00010000D    297
     510       0    -295       1       1                               0D    298
     116     208       0       0       0                        00010000D    299
     116       0       0       1       0                               0D    300
     123     209       0       0       0                        00010200D    301
     123       0       0       1       0                               0D    302
     123     210       0       0       0                        00010200D    303
     123       0       0       1       0                               0D    304
     190     211       0       0       0                        00010000D    305
     190       0    -311       1       1                               0D    306
     508     212       0       0       0                        00010000D    307
     508       0       0       1       1                               0D    308
     508     213       0       0       0                        00010000D    309
     508       0       0       1       1                               0D    310
     314     214       0       0       0                        00000200D    311
     314       0       8       1       0                               0D    312
     510     215       0       0       0                        00010000D    313
     510       0    -311       1       1                               0D    314
     110     216       0       0       0                        01010000D    315
     110       0       0       1       0                               0D    316
     110     217       0       0       0                        01010000D    317
     110       0       0       1       0                               0D    318
     120     218       0       0       0                        01010000D    319
     120       0    -323       1       0                               0D    320
     508     219       0       0       0                        00010000D    321
     508       0       0       1       1                               0D    322
     314     220       0       0       0                        00000200D    323
     314       0       8       1       0                               0D    324
     510     221       0       0       0                        00010000D    325
     510       0    -323       1       1                               0D    326
     116     222       0       0       0                        00010000D    327
     116       0       0       1       0                               0D    328
     123     223       0       0       0                        00010200D    329
     123       0       0       1       0                               0D    330
     123     224       0       0       0                        00010200D    331
     123       0       0       1       0                               0D    332
     190     225       0       0       0                        00010000D    333
     190       0    -339       1       1                               0D    334
     508     226       0       0       0                        00010000D    335
     508       0       0       1       1                               0D    336
     508     227       0       0       0                        00010000D    337
     508       0       0       1       1                               0D    338
     314     228       0       0       0                        00000200D    339
     314       0       8       1       0                               0D    340
     510     229       0       0       0                        00010000D    341
     510       0    -339       1       1                               0D    342
     110     230       0       0       0                        01010000D    343
     110       0       0       1       0                               0D    344
     110     231       0       0       0                        01010000D    345
     110       0       0       1       0                               0D    346
     120     232       0       0       0                        01010000D    347
     120       0    -351       1       0                               0D    348
     508     233       0       0       0                        00010000D    349
     508       0       0       1       1                               0D    350
     314     234       0       0       0                        00000200D    351
     314       0       8       1       0                               0D    352
     510     235       0       0       0                        00010000D    353
     510       0    -351       1       1                               0D    354
     116     236       0       0       0                        00010000D    355
     116       0       0       1       0                               0D    356
     123     237       0       0       0                        00010200D    357
     123       0       0       1       0                               0D    358
     123     238       0       0       0                        00010200D    359
     123       0       0       1       0                               0D    360
     190     239       0       0       0                        00010000D    361
     190       0    -367       1       1                               0D    362
     508     240       0       0       0                        00010000D    363
     508       0       0       1       1                               0D    364
     508     241       0       0       0                        00010000D    365
     508       0       0       1       1                               0D    366
     314     242       0       0       0                        00000200D    367
     314       0       8       1       0                               0D    368
     510     243       0       0       0                        00010000D    369
     510       0    -367       1       1                               0D    370
     110     244       0       0       0                        01010000D    371
     110       0       0       1       0                               0D    372
     110     245       0       0       0                        01010000D    373
     110       0       0       1       0                               0D    374
     120     246       0       0       0                        01010000D    375
     120       0    -379       1       0                               0D    376
     508     247       0       0       0                        00010000D    377
     508       0       0       1       1                               0D    378
     314     248       0       0       0                        00000200D    379
     314       0       8       1       0                               0D    380
     510     249       0       0       0                        00010000D    381
     510       0    -379       1       1                               0D    382
     116     250       0       0       0                        00010000D    383
     116       0       0       1       0                               0D    384
     123     251       0       0       0                        00010200D    385
     123       0       0       1       0                               0D    386
     123     252       0       0       0                        00010200D    387
     123       0       0       1       0                               0D    388
     190     253       0       0       0                        00010000D    389
     190       0    -395       1       1                               0D    390
     508     254       0       0       0                        00010000D    391
     508       0       0       1       1                               0D    392
     508     255       0       0       0                        00010000D    393
     508       0       0       1       1                               0D    394
     314     256       0       0       0                        00000200D    395
     314       0       8       1       0                               0D    396
     510     257       0       0       0                        00010000D    397
     510       0    -395       1       1                               0D    398
     110     258       0       0       0                        01010000D    399
     110       0       0       1       0                               0D    400
     110     259       0       0       0                        01010000D    401
     110       0       0       1       0                               0D    402
     120     260       0       0       0                        01010000D    403
     120       0    -407       1       0                               0D    404
     508     261       0       0       0                        00010000D    405
     508       0       0       1       1                               0D    406
     314     262       0       0       0                        00000200D    407
     314       0       8       1       0                               0D    408
     510     263       0       0       0                        00010000D    409
     510       0    -407       1       1                               0D    410
     110     264       0       0       0                        01010000D    411
     110       0       0       1       0                               0D    412
     110     265       0       0       0                        01010000D    413
     110       0       0       1       0                               0D    414
     120     266       0       0       0                        01010000D    415
     120       0      -1       1       0                               0D    416
     508     267       0       0       0                        00010000D    417
     508       0       0       1       1                               0D    418
     510     268       0       0       0                        00010000D    419
     510       0      -1       1       1                               0D    420
     110     269       0       0       0                        01010000D    421
     110       0       0       1       0                               0D    422
     110     270       0       0       0                        01010000D    423
     110       0       0       1       0                               0D    424
     120     271       0       0       0                        01010000D    425
     120       0      -1       1       0                               0D    426
     508     272       0       0       0                        00010000D    427
     508       0       0       1       1                               0D    428
     510     273       0       0       0                        00010000D    429
     510       0      -1       1       1                               0D    430
     514     274       0       0       0                        00010000D    431
     514       0       0       3       1                               0D    432
     186     277       0       0       0                        00000000D    433
     186       0       0       1       0                               0D    434
314,86.2745098039216,91.3725490196078,26.2745098039216,;               1P      1
502,28,2.,0.,-13.5,0.,0.,15.732050808,3.,0.,14.5,3.,0.,-15.5,          3P      2
0.,0.,11.5,1.,0.,15.5,1.,0.,14.5,3.,0.,-11.5,0.,0.,-11.5,3.,0.,        3P      3
-15.732050808,1.,0.,-15.5,1.,0.,-14.5,2.,0.,16.,3.,0.,11.5,3.,         3P      4
0.,15.5,0.,0.,12.5,3.,0.,-14.5,1.,0.,-16.,2.,0.,-16.,0.,0.,            3P      5
-12.5,3.,0.,15.732050808,1.,0.,16.,0.,0.,13.5,2.,0.,-12.5,0.,          3P      6
0.,-15.732050808,2.,0.,12.5,0.,0.,-13.5,2.,0.,13.5;                    3P      7
124,6.12323399573677E-017,0.,-1.,3.,0.,1.,0.,0.,1.,0.,                 5P      8
6.12323399573677E-017,-3.;                                             5P      9
100,0.,3.,0.,14.5,0.,-8.5,0.;                                          7P     10
124,6.12323399573677E-017,0.,-1.,2.,0.,1.,0.,0.,1.,0.,                 9P     11
6.12323399573677E-017,-2.;                                             9P     12
100,0.,2.,0.,14.5,0.,-10.5,0.;                                        11P     13
124,6.12323399573677E-017,0.,-1.,3.,0.,1.,0.,0.,1.,0.,                13P     14
6.12323399573677E-017,-3.;                                            13P     15
100,0.,3.,0.,17.5,0.,-11.5,0.;                                        15P     16
110,2.,0.,12.5,0.,0.,12.5;                                            17P     17
124,-6.12323399573677E-017,-7.49879891330929E-033,-1.,3.,             19P     18
1.22464679914735E-016,-1.,0.,-3.67394039744206E-016,-1.,              19P     19
-1.22464679914735E-016,6.12323399573677E-017,3.;                      19P     20
100,0.,3.,0.,14.5,0.,-8.5,0.;                                         21P     21
110,2.,0.,-16.,1.,0.,-16.;                                            23P     22
124,6.12323399573677E-017,0.,-1.,0.999999999999999,0.,1.,0.,0.,       25P     23
1.,0.,6.12323399573677E-017,-0.999999999999999;                       25P     24
100,0.,1.,0.,15.5,0.,-13.5,0.;                                        27P     25
124,-6.12323399573677E-017,-7.49879891330929E-033,-1.,                29P     26
0.999999999999999,1.22464679914735E-016,-1.,0.,                       29P     27
-1.22464679914735E-016,-1.,-1.22464679914735E-016,                    29P     28
6.12323399573677E-017,0.999999999999999;                              29P     29
100,0.,1.,0.,15.5,0.,-13.5,0.;                                        31P     30
110,3.,0.,-15.5,1.,0.,-15.5;                                          33P     31
110,3.,0.,-15.732050808,2.,0.,-16.;                                   35P     32
124,6.12323399573677E-017,0.,1.,1.,0.,1.,0.,0.,-1.,0.,                37P     33
6.12323399573677E-017,1.;                                             37P     34
100,0.,1.,0.,17.,0.,-15.,0.;                                          39P     35
124,-6.12323399573677E-017,-7.49879891330929E-033,-1.,0.,             41P     36
1.22464679914735E-016,-1.,0.,0.,-1.,-1.22464679914735E-016,           41P     37
6.12323399573677E-017,0.;                                             41P     38
100,0.,0.,0.,11.5,0.,-11.5,0.;                                        43P     39
110,0.,0.,-15.732050808,1.,0.,-16.;                                   45P     40
124,-6.12323399573677E-017,-7.49879891330929E-033,-1.,2.,             47P     41
1.22464679914735E-016,-1.,0.,-2.4492935982947E-016,-1.,               47P     42
-1.22464679914735E-016,6.12323399573677E-017,2.;                      47P     43
100,0.,2.,0.,18.,0.,-14.,0.;                                          49P     44
110,2.,0.,16.,1.,0.,16.;                                              51P     45
110,3.,0.,-11.5,0.,0.,-11.5;                                          53P     46
124,-6.12323399573677E-017,4.27583144589696E-031,1.,3.,               55P     47
-6.98296267768627E-015,-1.,0.,2.09488880330588E-014,1.,               55P     48
-6.98296267768627E-015,6.12323399573677E-017,-3.;                     55P     49
100,0.,3.,0.,18.732050808,0.,-12.732050808,0.;                        57P     50
124,-6.12323399573677E-017,-7.49879891330929E-033,-1.,0.,             59P     51
1.22464679914735E-016,-1.,0.,0.,-1.,-1.22464679914735E-016,           59P     52
6.12323399573677E-017,0.;                                             59P     53
100,0.,0.,0.,12.5,0.,-12.5,0.;                                        61P     54
124,-6.12323399573677E-017,4.27583144589696E-031,-1.,0.,              63P     55
-6.98296267768627E-015,-1.,0.,0.,-1.,6.98296267768627E-015,           63P     56
6.12323399573677E-017,0.;                                             63P     57
100,0.,0.,0.,15.732050808,0.,-15.732050808,0.;                        65P     58
124,-6.12323399573677E-017,-7.49879891330929E-033,-1.,2.,             67P     59
1.22464679914735E-016,-1.,0.,-2.44929359829471E-016,-1.,              67P     60
-1.22464679914735E-016,6.12323399573677E-017,2.;                      67P     61
100,0.,2.,0.,15.5,0.,-11.5,0.;                                        69P     62
110,3.,0.,15.732050808,2.,0.,16.;                                     71P     63
124,-6.12323399573677E-017,-7.49879891330929E-033,-1.,                73P     64
0.999999999999999,1.22464679914735E-016,-1.,0.,                       73P     65
-1.22464679914735E-016,-1.,-1.22464679914735E-016,                    73P     66
6.12323399573677E-017,0.999999999999999;                              73P     67
100,0.,1.,0.,16.5,0.,-14.5,0.;                                        75P     68
110,3.,0.,-14.5,1.,0.,-14.5;                                          77P     69
124,6.12323399573677E-017,0.,-1.,3.,0.,1.,0.,0.,1.,0.,                79P     70
6.12323399573677E-017,-3.;                                            79P     71
100,0.,3.,0.,18.5,0.,-12.5,0.;                                        81P     72
124,-6.12323399573677E-017,-7.49879891330929E-033,-1.,3.,             83P     73
1.22464679914735E-016,-1.,0.,-3.67394039744206E-016,-1.,              83P     74
-1.22464679914735E-016,6.12323399573677E-017,3.;                      83P     75
100,0.,3.,0.,18.5,0.,-12.5,0.;                                        85P     76
110,3.,0.,14.5,1.,0.,14.5;                                            87P     77
110,2.,0.,-12.5,0.,0.,-12.5;                                          89P     78
124,6.12323399573677E-017,0.,-1.,2.,0.,1.,0.,0.,1.,0.,                91P     79
6.12323399573677E-017,-2.;                                            91P     80
100,0.,2.,0.,18.,0.,-14.,0.;                                          93P     81
110,2.,0.,13.5,0.,0.,13.5;                                            95P     82
110,0.,0.,15.732050808,1.,0.,16.;                                     97P     83
124,-6.12323399573677E-017,4.27583144589696E-031,1.,1.,               99P     84
-6.98296267768627E-015,-1.,0.,6.98296267768628E-015,1.,               99P     85
-6.98296267768627E-015,6.12323399573677E-017,-1.;                     99P     86
100,0.,1.,0.,17.,0.,-15.,0.;                                         101P     87
110,3.,0.,11.5,0.,0.,11.5;                                           103P     88
124,6.12323399573677E-017,0.,-1.,0.999999999999999,0.,1.,0.,0.,      105P     89
1.,0.,6.12323399573677E-017,-0.999999999999999;                      105P     90
100,0.,1.,0.,16.5,0.,-14.5,0.;                                       107P     91
124,6.12323399573677E-017,0.,-1.,2.,0.,1.,0.,0.,1.,0.,               109P     92
6.12323399573677E-017,-2.;                                           109P     93
100,0.,2.,0.,15.5,0.,-11.5,0.;                                       111P     94
124,-6.12323399573677E-017,-7.49879891330929E-033,-1.,0.,            113P     95
1.22464679914735E-016,-1.,0.,0.,-1.,-1.22464679914735E-016,          113P     96
6.12323399573677E-017,0.;                                            113P     97
100,0.,0.,0.,13.5,0.,-13.5,0.;                                       115P     98
110,2.,0.,-13.5,0.,0.,-13.5;                                         117P     99
124,-6.12323399573677E-017,-7.49879891330929E-033,-1.,3.,            119P    100
1.22464679914735E-016,-1.,0.,-3.67394039744206E-016,-1.,             119P    101
-1.22464679914735E-016,6.12323399573677E-017,3.;                     119P    102
100,0.,3.,0.,17.5,0.,-11.5,0.;                                       121P    103
110,3.,0.,15.5,1.,0.,15.5;                                           123P    104
124,6.12323399573677E-017,0.,1.,3.,0.,1.,0.,0.,-1.,0.,               125P    105
6.12323399573677E-017,3.;                                            125P    106
100,0.,3.,0.,18.732050808,0.,-12.732050808,0.;                       127P    107
124,6.12323399573677E-017,0.,-1.,0.,0.,1.,0.,0.,1.,0.,               129P    108
6.12323399573677E-017,0.;                                            129P    109
100,0.,0.,0.,13.5,0.,-13.5,0.;                                       131P    110
124,6.12323399573677E-017,0.,-1.,0.,0.,1.,0.,0.,1.,0.,               133P    111
6.12323399573677E-017,0.;                                            133P    112
100,0.,0.,0.,11.5,0.,-11.5,0.;                                       135P    113
124,-6.12323399573677E-017,-7.49879891330929E-033,-1.,2.,            137P    114
1.22464679914735E-016,-1.,0.,-2.44929359829471E-016,-1.,             137P    115
-1.22464679914735E-016,6.12323399573677E-017,2.;                     137P    116
100,0.,2.,0.,14.5,0.,-10.5,0.;                                       139P    117
124,6.12323399573677E-017,0.,-1.,0.,0.,1.,0.,0.,1.,0.,               141P    118
6.12323399573677E-017,0.;                                            141P    119
100,0.,0.,0.,12.5,0.,-12.5,0.;                                       143P    120
124,6.12323399573677E-017,0.,-1.,0.,0.,1.,0.,0.,1.,0.,               145P    121
6.12323399573677E-017,0.;                                            145P    122
100,0.,0.,0.,15.732050808,0.,-15.732050808,0.;                       147P    123
504,44,7,3,14,3,8,11,3,26,3,24,15,3,3,3,17,17,3,26,3,16,21,3,8,      149P    124
3,14,23,3,19,3,18,27,3,7,3,12,31,3,12,3,7,33,3,4,3,11,35,3,10,       149P    125
3,19,39,3,18,3,22,43,3,9,3,5,45,3,25,3,18,49,3,19,3,13,51,3,13,      149P    126
3,22,53,3,8,3,9,57,3,21,3,10,61,3,20,3,16,65,3,25,3,2,69,3,1,3,      149P    127
28,71,3,21,3,13,75,3,11,3,6,77,3,17,3,12,81,3,15,3,4,85,3,4,3,       149P    128
15,87,3,3,3,7,89,3,24,3,20,93,3,13,3,19,95,3,28,3,23,97,3,2,3,       149P    129
22,101,3,22,3,18,103,3,14,3,5,107,3,6,3,11,111,3,28,3,1,115,3,       149P    130
27,3,23,117,3,1,3,27,121,3,17,3,3,123,3,15,3,6,127,3,10,3,21,        149P    131
131,3,23,3,27,135,3,5,3,9,139,3,24,3,26,143,3,16,3,20,147,3,2,       149P    132
3,25;                                                                149P    133
110,-1000.,0.,0.,0.,0.,0.;                                           151P    134
110,1.,0.,-16.,0.,0.,-15.732050808;                                  153P    135
120,151,153,0.,6.28318530717959;                                     155P    136
508,4,0,149,44,0,0,0,149,30,1,0,0,149,11,0,0,0,149,13,0,0;           157P    137
510,155,1,1,157;                                                     159P    138
110,1002.,0.,0.,2.,0.,0.;                                            161P    139
110,2.,0.,16.,3.,0.,15.732050808;                                    163P    140
120,161,163,0.,6.28318530717959;                                     165P    141
508,4,0,149,39,0,0,0,149,10,1,0,0,149,28,0,0,0,149,21,0,0;           167P    142
510,165,1,1,167;                                                     169P    143
110,0.,0.,0.,-1000.,0.,0.;                                           171P    144
110,3.,0.,11.5,0.,0.,11.5;                                           173P    145
120,171,173,0.,6.28318530717959;                                     175P    146
508,4,0,149,5,0,0,0,149,16,1,0,0,149,12,1,0,0,149,32,0,0;            177P    147
314,100.,100.,50.1960784313725,;                                     179P    148
510,175,1,1,177;                                                     181P    149
110,0.,0.,0.,-1000.,0.,0.;                                           183P    150
110,1.,0.,14.5,3.,0.,14.5;                                           185P    151
120,183,185,0.,6.28318530717959;                                     187P    152
508,4,0,149,3,1,0,0,149,23,1,0,0,149,7,0,0,0,149,26,0,0;             189P    153
314,100.,100.,50.1960784313725,;                                     191P    154
510,187,1,1,189;                                                     193P    155
110,0.,0.,0.,-1000.,0.,0.;                                           195P    156
110,3.,0.,15.5,1.,0.,15.5;                                           197P    157
120,195,197,0.,6.28318530717959;                                     199P    158
508,4,0,149,25,0,0,0,149,9,1,0,0,149,22,1,0,0,149,38,0,0;            201P    159
314,100.,100.,50.1960784313725,;                                     203P    160
510,199,1,1,201;                                                     205P    161
110,0.,0.,0.,-1000.,0.,0.;                                           207P    162
110,1.,0.,16.,2.,0.,16.;                                             209P    163
120,207,209,0.,6.28318530717959;                                     211P    164
508,4,0,149,28,1,0,0,149,6,1,0,0,149,11,1,0,0,149,15,0,0;            213P    165
314,100.,100.,50.1960784313725,;                                     215P    166
510,211,1,1,213;                                                     217P    167
110,0.,0.,0.,-1000.,0.,0.;                                           219P    168
110,2.,0.,13.5,0.,0.,13.5;                                           221P    169
120,219,221,0.,6.28318530717959;                                     223P    170
508,4,0,149,20,0,0,0,149,36,1,0,0,149,35,1,0,0,149,29,0,0;           225P    171
314,100.,100.,50.1960784313725,;                                     227P    172
510,223,1,1,225;                                                     229P    173
110,0.,0.,0.,-1000.,0.,0.;                                           231P    174
110,0.,0.,12.5,2.,0.,12.5;                                           233P    175
120,231,233,0.,6.28318530717959;                                     235P    176
508,4,0,149,2,1,0,0,149,27,1,0,0,149,43,0,0,0,149,4,0,0;             237P    177
314,100.,100.,50.1960784313725,;                                     239P    178
510,235,1,1,237;                                                     241P    179
116,0.,11.5,0.,;                                                     243P    180
123,1.,0.,0.;                                                        245P    181
123,0.,0.707106781,-0.707106781;                                     247P    182
190,243,245,247;                                                     249P    183
508,2,0,149,43,1,0,0,149,18,1,0;                                     251P    184
508,2,0,149,41,0,0,0,149,12,0,0;                                     253P    185
314,100.,100.,50.1960784313725,;                                     255P    186
510,249,2,1,251,253;                                                 257P    187
110,0.,0.,0.,-1000.,0.,0.;                                           259P    188
110,0.,0.,12.5,2.,0.,12.5;                                           261P    189
120,259,261,0.,6.28318530717959;                                     263P    190
508,4,0,149,27,0,0,0,149,42,1,0,0,149,4,1,0,0,149,18,0,0;            265P    191
314,100.,100.,50.1960784313725,;                                     267P    192
510,263,1,1,265;                                                     269P    193
116,2.,12.5,0.,;                                                     271P    194
123,1.,0.,0.;                                                        273P    195
123,0.,0.707106781,-0.707106781;                                     275P    196
190,271,273,275;                                                     277P    197
508,2,0,149,34,1,0,0,149,20,1,0;                                     279P    198
508,2,0,149,2,0,0,0,149,42,0,0;                                      281P    199
314,100.,100.,50.1960784313725,;                                     283P    200
510,277,2,1,279,281;                                                 285P    201
110,0.,0.,0.,-1000.,0.,0.;                                           287P    202
110,2.,0.,13.5,0.,0.,13.5;                                           289P    203
120,287,289,0.,6.28318530717959;                                     291P    204
508,4,0,149,36,0,0,0,149,34,0,0,0,149,29,1,0,0,149,40,1,0;           293P    205
314,100.,100.,50.1960784313725,;                                     295P    206
510,291,1,1,293;                                                     297P    207
116,0.,13.5,0.,;                                                     299P    208
123,1.,0.,0.;                                                        301P    209
123,0.,0.707106781,-0.707106781;                                     303P    210
190,299,301,303;                                                     305P    211
508,2,0,149,19,1,0,0,149,44,1,0;                                     307P    212
508,2,0,149,40,0,0,0,149,35,0,0;                                     309P    213
314,100.,100.,50.1960784313725,;                                     311P    214
510,305,2,1,307,309;                                                 313P    215
110,0.,0.,0.,-1000.,0.,0.;                                           315P    216
110,1.,0.,16.,2.,0.,16.;                                             317P    217
120,315,317,0.,6.28318530717959;                                     319P    218
508,4,0,149,6,0,0,0,149,14,1,0,0,149,15,1,0,0,149,31,1,0;            321P    219
314,100.,100.,50.1960784313725,;                                     323P    220
510,319,1,1,321;                                                     325P    221
116,3.,15.5,0.,;                                                     327P    222
123,-1.,0.,0.;                                                       329P    223
123,0.,-0.707106781,0.707106781;                                     331P    224
190,327,329,331;                                                     333P    225
508,2,0,149,17,1,0,0,149,39,1,0;                                     335P    226
508,2,0,149,24,1,0,0,149,25,1,0;                                     337P    227
314,100.,100.,50.1960784313725,;                                     339P    228
510,333,2,1,335,337;                                                 341P    229
110,0.,0.,0.,-1000.,0.,0.;                                           343P    230
110,3.,0.,15.5,1.,0.,15.5;                                           345P    231
120,343,345,0.,6.28318530717959;                                     347P    232
508,4,0,149,9,0,0,0,149,24,0,0,0,149,38,1,0,0,149,33,1,0;            349P    233
314,100.,100.,50.1960784313725,;                                     351P    234
510,347,1,1,349;                                                     353P    235
116,1.,15.5,0.,;                                                     355P    236
123,-1.,0.,0.;                                                       357P    237
123,0.,-0.707106781,0.707106781;                                     359P    238
190,355,357,359;                                                     361P    239
508,2,0,149,33,0,0,0,149,22,0,0;                                     363P    240
508,2,0,149,7,1,0,0,149,8,1,0;                                       365P    241
314,100.,100.,50.1960784313725,;                                     367P    242
510,361,2,1,363,365;                                                 369P    243
110,0.,0.,0.,-1000.,0.,0.;                                           371P    244
110,1.,0.,14.5,3.,0.,14.5;                                           373P    245
120,371,373,0.,6.28318530717959;                                     375P    246
508,4,0,149,23,0,0,0,149,37,1,0,0,149,26,1,0,0,149,8,0,0;            377P    247
314,100.,100.,50.1960784313725,;                                     379P    248
510,375,1,1,377;                                                     381P    249
116,3.,11.5,0.,;                                                     383P    250
123,-1.,0.,0.;                                                       385P    251
123,0.,-0.707106781,0.707106781;                                     387P    252
190,383,385,387;                                                     389P    253
508,2,0,149,3,0,0,0,149,37,0,0;                                      391P    254
508,2,0,149,1,1,0,0,149,5,1,0;                                       393P    255
314,100.,100.,50.1960784313725,;                                     395P    256
510,389,2,1,391,393;                                                 397P    257
110,0.,0.,0.,-1000.,0.,0.;                                           399P    258
110,3.,0.,11.5,0.,0.,11.5;                                           401P    259
120,399,401,0.,6.28318530717959;                                     403P    260
508,4,0,149,16,0,0,0,149,1,0,0,0,149,32,1,0,0,149,41,1,0;            405P    261
314,100.,100.,50.1960784313725,;                                     407P    262
510,403,1,1,405;                                                     409P    263
110,1002.,0.,0.,2.,0.,0.;                                            411P    264
110,2.,0.,16.,3.,0.,15.732050808;                                    413P    265
120,411,413,0.,6.28318530717959;                                     415P    266
508,4,0,149,10,0,0,0,149,17,0,0,0,149,21,1,0,0,149,14,0,0;           417P    267
510,415,1,1,417;                                                     419P    268
110,-1000.,0.,0.,0.,0.,0.;                                           421P    269
110,1.,0.,-16.,0.,0.,-15.732050808;                                  423P    270
120,421,423,0.,6.28318530717959;                                     425P    271
508,4,0,149,30,0,0,0,149,19,0,0,0,149,13,1,0,0,149,31,0,0;           427P    272
510,425,1,1,427;                                                     429P    273
514,22,159,1,169,1,181,1,193,1,205,1,217,1,229,1,241,1,257,1,        431P    274
269,1,285,1,297,1,313,1,325,1,341,1,353,1,369,1,381,1,397,1,         431P    275
409,1,419,1,429,1;                                                   431P    276
186,431,1,0;                                                         433P    277
S      1G      4D    434P    277                                        T      1
