SolidWorks IGES file using analytic representation for surfaces         S      1
1H,,1H;,25Hpetit joint piston.SLDPRT,74HF:\Travail\POLYTECH\Robotique\TPG      1
01\dossier étudiant\petit joint piston.IGS,15HSolidWorks 2013,15HSolidWoG      2
rks 2013,32,308,15,308,15,25Hpetit joint piston.SLDPRT,1.,2,2HMM,50,    G      3
0.125,13H140701.132750,1E-008,499990.,6HLilian,,11,0,13H140701.132750;  G      4
     314       1       0       0       0                        00000200D      1
     314       0       8       1       0                               0D      2
     502       2       0       0       0                        00010000D      3
     502       0       0       4       1                               0D      4
     124       6       0       0       0                        00000000D      5
     124       0       0       2       0                               0D      6
     100       8       0       0       0               5        00010000D      7
     100       0       0       1       0                               0D      8
     110       9       0       0       0                        01010000D      9
     110       0       0       1       0                               0D     10
     124      10       0       0       0                        00000000D     11
     124       0       0       4       0                               0D     12
     100      14       0       0       0              11        00010000D     13
     100       0       0       1       0                               0D     14
     110      15       0       0       0                        01010000D     15
     110       0       0       1       0                               0D     16
     110      16       0       0       0                        01010000D     17
     110       0       0       1       0                               0D     18
     124      17       0       0       0                        00000000D     19
     124       0       0       3       0                               0D     20
     100      20       0       0       0              19        00010000D     21
     100       0       0       1       0                               0D     22
     110      21       0       0       0                        01010000D     23
     110       0       0       1       0                               0D     24
     110      22       0       0       0                        01010000D     25
     110       0       0       1       0                               0D     26
     124      23       0       0       0                        00000000D     27
     124       0       0       2       0                               0D     28
     100      25       0       0       0              27        00010000D     29
     100       0       0       1       0                               0D     30
     124      26       0       0       0                        00000000D     31
     124       0       0       2       0                               0D     32
     100      28       0       0       0              31        00010000D     33
     100       0       0       1       0                               0D     34
     110      29       0       0       0                        01010000D     35
     110       0       0       1       0                               0D     36
     124      30       0       0       0                        00000000D     37
     124       0       0       3       0                               0D     38
     100      33       0       0       0              37        00010000D     39
     100       0       0       1       0                               0D     40
     124      34       0       0       0                        00000000D     41
     124       0       0       2       0                               0D     42
     100      36       0       0       0              41        00010000D     43
     100       0       0       1       0                               0D     44
     124      37       0       0       0                        00000000D     45
     124       0       0       3       0                               0D     46
     100      40       0       0       0              45        00010000D     47
     100       0       0       1       0                               0D     48
     110      41       0       0       0                        01010000D     49
     110       0       0       1       0                               0D     50
     124      42       0       0       0                        00000000D     51
     124       0       0       2       0                               0D     52
     100      44       0       0       0              51        00010000D     53
     100       0       0       1       0                               0D     54
     124      45       0       0       0                        00000000D     55
     124       0       0       2       0                               0D     56
     100      47       0       0       0              55        00010000D     57
     100       0       0       1       0                               0D     58
     124      48       0       0       0                        00000000D     59
     124       0       0       2       0                               0D     60
     100      50       0       0       0              59        00010000D     61
     100       0       0       1       0                               0D     62
     110      51       0       0       0                        01010000D     63
     110       0       0       1       0                               0D     64
     110      52       0       0       0                        01010000D     65
     110       0       0       1       0                               0D     66
     110      53       0       0       0                        01010000D     67
     110       0       0       1       0                               0D     68
     110      54       0       0       0                        01010000D     69
     110       0       0       1       0                               0D     70
     124      55       0       0       0                        00000000D     71
     124       0       0       2       0                               0D     72
     100      57       0       0       0              71        00010000D     73
     100       0       0       1       0                               0D     74
     110      58       0       0       0                        01010000D     75
     110       0       0       1       0                               0D     76
     124      59       0       0       0                        00000000D     77
     124       0       0       4       0                               0D     78
     100      63       0       0       0              77        00010000D     79
     100       0       0       1       0                               0D     80
     124      64       0       0       0                        00000000D     81
     124       0       0       2       0                               0D     82
     100      66       0       0       0              81        00010000D     83
     100       0       0       1       0                               0D     84
     124      67       0       0       0                        00000000D     85
     124       0       0       3       0                               0D     86
     100      70       0       0       0              85        00010000D     87
     100       0       0       1       0                               0D     88
     110      71       0       0       0                        01010000D     89
     110       0       0       1       0                               0D     90
     124      72       0       0       0                        00000000D     91
     124       0       0       3       0                               0D     92
     100      75       0       0       0              91        00010000D     93
     100       0       0       1       0                               0D     94
     124      76       0       0       0                        00000000D     95
     124       0       0       2       0                               0D     96
     100      78       0       0       0              95        00010000D     97
     100       0       0       1       0                               0D     98
     110      79       0       0       0                        01010000D     99
     110       0       0       1       0                               0D    100
     124      80       0       0       0                        00000000D    101
     124       0       0       3       0                               0D    102
     100      83       0       0       0             101        00010000D    103
     100       0       0       1       0                               0D    104
     124      84       0       0       0                        00000000D    105
     124       0       0       3       0                               0D    106
     100      87       0       0       0             105        00010000D    107
     100       0       0       1       0                               0D    108
     124      88       0       0       0                        00000000D    109
     124       0       0       3       0                               0D    110
     100      91       0       0       0             109        00010000D    111
     100       0       0       1       0                               0D    112
     124      92       0       0       0                        00000000D    113
     124       0       0       3       0                               0D    114
     100      95       0       0       0             113        00010000D    115
     100       0       0       1       0                               0D    116
     124      96       0       0       0                        00000000D    117
     124       0       0       2       0                               0D    118
     100      98       0       0       0             117        00010000D    119
     100       0       0       1       0                               0D    120
     504      99       0       0       0                        00010000D    121
     504       0       0       8       1                               0D    122
     110     107       0       0       0                        01010000D    123
     110       0       0       1       0                               0D    124
     110     108       0       0       0                        01010000D    125
     110       0       0       1       0                               0D    126
     120     109       0       0       0                        01010000D    127
     120       0      -1       1       0                               0D    128
     508     110       0       0       0                        00010000D    129
     508       0       0       1       1                               0D    130
     510     111       0       0       0                        00010000D    131
     510       0      -1       1       1                               0D    132
     110     112       0       0       0                        01010000D    133
     110       0       0       1       0                               0D    134
     110     113       0       0       0                        01010000D    135
     110       0       0       1       0                               0D    136
     120     114       0       0       0                        01010000D    137
     120       0      -1       1       0                               0D    138
     508     115       0       0       0                        00010000D    139
     508       0       0       1       1                               0D    140
     510     116       0       0       0                        00010000D    141
     510       0      -1       1       1                               0D    142
     110     117       0       0       0                        01010000D    143
     110       0       0       1       0                               0D    144
     110     118       0       0       0                        01010000D    145
     110       0       0       1       0                               0D    146
     120     119       0       0       0                        01010000D    147
     120       0      -1       1       0                               0D    148
     508     120       0       0       0                        00010000D    149
     508       0       0       1       1                               0D    150
     510     121       0       0       0                        00010000D    151
     510       0      -1       1       1                               0D    152
     110     122       0       0       0                        01010000D    153
     110       0       0       1       0                               0D    154
     110     123       0       0       0                        01010000D    155
     110       0       0       1       0                               0D    156
     120     124       0       0       0                        01010000D    157
     120       0      -1       1       0                               0D    158
     508     125       0       0       0                        00010000D    159
     508       0       0       1       1                               0D    160
     510     126       0       0       0                        00010000D    161
     510       0      -1       1       1                               0D    162
     110     127       0       0       0                        01010000D    163
     110       0       0       1       0                               0D    164
     110     128       0       0       0                        01010000D    165
     110       0       0       1       0                               0D    166
     120     129       0       0       0                        01010000D    167
     120       0      -1       1       0                               0D    168
     508     130       0       0       0                        00010000D    169
     508       0       0       1       1                               0D    170
     510     131       0       0       0                        00010000D    171
     510       0      -1       1       1                               0D    172
     110     132       0       0       0                        01010000D    173
     110       0       0       1       0                               0D    174
     110     133       0       0       0                        01010000D    175
     110       0       0       1       0                               0D    176
     120     134       0       0       0                        01010000D    177
     120       0      -1       1       0                               0D    178
     508     135       0       0       0                        00010000D    179
     508       0       0       1       1                               0D    180
     510     136       0       0       0                        00010000D    181
     510       0      -1       1       1                               0D    182
     110     137       0       0       0                        01010000D    183
     110       0       0       1       0                               0D    184
     110     138       0       0       0                        01010000D    185
     110       0       0       1       0                               0D    186
     120     139       0       0       0                        01010000D    187
     120       0      -1       1       0                               0D    188
     508     140       0       0       0                        00010000D    189
     508       0       0       1       1                               0D    190
     510     141       0       0       0                        00010000D    191
     510       0      -1       1       1                               0D    192
     116     142       0       0       0                        00010000D    193
     116       0       0       1       0                               0D    194
     123     143       0       0       0                        00010200D    195
     123       0       0       1       0                               0D    196
     123     144       0       0       0                        00010200D    197
     123       0       0       1       0                               0D    198
     190     145       0       0       0                        00010000D    199
     190       0      -1       1       1                               0D    200
     508     146       0       0       0                        00010000D    201
     508       0       0       1       1                               0D    202
     508     147       0       0       0                        00010000D    203
     508       0       0       1       1                               0D    204
     510     148       0       0       0                        00010000D    205
     510       0      -1       1       1                               0D    206
     110     149       0       0       0                        01010000D    207
     110       0       0       1       0                               0D    208
     110     150       0       0       0                        01010000D    209
     110       0       0       1       0                               0D    210
     120     151       0       0       0                        01010000D    211
     120       0      -1       1       0                               0D    212
     508     152       0       0       0                        00010000D    213
     508       0       0       1       1                               0D    214
     510     153       0       0       0                        00010000D    215
     510       0      -1       1       1                               0D    216
     110     154       0       0       0                        01010000D    217
     110       0       0       1       0                               0D    218
     110     155       0       0       0                        01010000D    219
     110       0       0       1       0                               0D    220
     120     156       0       0       0                        01010000D    221
     120       0      -1       1       0                               0D    222
     508     157       0       0       0                        00010000D    223
     508       0       0       1       1                               0D    224
     510     158       0       0       0                        00010000D    225
     510       0      -1       1       1                               0D    226
     110     159       0       0       0                        01010000D    227
     110       0       0       1       0                               0D    228
     110     160       0       0       0                        01010000D    229
     110       0       0       1       0                               0D    230
     120     161       0       0       0                        01010000D    231
     120       0      -1       1       0                               0D    232
     508     162       0       0       0                        00010000D    233
     508       0       0       1       1                               0D    234
     510     163       0       0       0                        00010000D    235
     510       0      -1       1       1                               0D    236
     116     164       0       0       0                        00010000D    237
     116       0       0       1       0                               0D    238
     123     165       0       0       0                        00010200D    239
     123       0       0       1       0                               0D    240
     123     166       0       0       0                        00010200D    241
     123       0       0       1       0                               0D    242
     190     167       0       0       0                        00010000D    243
     190       0      -1       1       1                               0D    244
     508     168       0       0       0                        00010000D    245
     508       0       0       1       1                               0D    246
     508     169       0       0       0                        00010000D    247
     508       0       0       1       1                               0D    248
     510     170       0       0       0                        00010000D    249
     510       0      -1       1       1                               0D    250
     110     171       0       0       0                        01010000D    251
     110       0       0       1       0                               0D    252
     110     172       0       0       0                        01010000D    253
     110       0       0       1       0                               0D    254
     120     173       0       0       0                        01010000D    255
     120       0      -1       1       0                               0D    256
     508     174       0       0       0                        00010000D    257
     508       0       0       1       1                               0D    258
     510     175       0       0       0                        00010000D    259
     510       0      -1       1       1                               0D    260
     110     176       0       0       0                        01010000D    261
     110       0       0       1       0                               0D    262
     110     177       0       0       0                        01010000D    263
     110       0       0       1       0                               0D    264
     120     178       0       0       0                        01010000D    265
     120       0      -1       1       0                               0D    266
     508     179       0       0       0                        00010000D    267
     508       0       0       1       1                               0D    268
     510     180       0       0       0                        00010000D    269
     510       0      -1       1       1                               0D    270
     116     181       0       0       0                        00010000D    271
     116       0       0       1       0                               0D    272
     123     182       0       0       0                        00010200D    273
     123       0       0       1       0                               0D    274
     123     183       0       0       0                        00010200D    275
     123       0       0       1       0                               0D    276
     190     184       0       0       0                        00010000D    277
     190       0      -1       1       1                               0D    278
     508     185       0       0       0                        00010000D    279
     508       0       0       1       1                               0D    280
     508     186       0       0       0                        00010000D    281
     508       0       0       1       1                               0D    282
     510     187       0       0       0                        00010000D    283
     510       0      -1       1       1                               0D    284
     110     188       0       0       0                        01010000D    285
     110       0       0       1       0                               0D    286
     110     189       0       0       0                        01010000D    287
     110       0       0       1       0                               0D    288
     120     190       0       0       0                        01010000D    289
     120       0      -1       1       0                               0D    290
     508     191       0       0       0                        00010000D    291
     508       0       0       1       1                               0D    292
     510     192       0       0       0                        00010000D    293
     510       0      -1       1       1                               0D    294
     116     193       0       0       0                        00010000D    295
     116       0       0       1       0                               0D    296
     123     194       0       0       0                        00010200D    297
     123       0       0       1       0                               0D    298
     123     195       0       0       0                        00010200D    299
     123       0       0       1       0                               0D    300
     190     196       0       0       0                        00010000D    301
     190       0      -1       1       1                               0D    302
     508     197       0       0       0                        00010000D    303
     508       0       0       1       1                               0D    304
     508     198       0       0       0                        00010000D    305
     508       0       0       1       1                               0D    306
     510     199       0       0       0                        00010000D    307
     510       0      -1       1       1                               0D    308
     110     200       0       0       0                        01010000D    309
     110       0       0       1       0                               0D    310
     110     201       0       0       0                        01010000D    311
     110       0       0       1       0                               0D    312
     120     202       0       0       0                        01010000D    313
     120       0      -1       1       0                               0D    314
     508     203       0       0       0                        00010000D    315
     508       0       0       1       1                               0D    316
     510     204       0       0       0                        00010000D    317
     510       0      -1       1       1                               0D    318
     514     205       0       0       0                        00010000D    319
     514       0       0       2       1                               0D    320
     186     207       0       0       0                        00000000D    321
     186       0       0       1       0                               0D    322
314,100.,100.,50.1960784313725,;                                       1P      1
502,22,0.,0.,3.5,3.,0.,-5.5,3.,0.,-4.,3.,0.,4.,0.,0.,-3.5,3.,          3P      2
0.,5.5,0.5,0.,5.,0.,0.,5.5,0.5,0.,-5.,3.,0.,3.5,3.,0.,-3.5,0.,         3P      3
0.,-5.5,2.,0.,5.,2.,0.,-5.,1.,0.,-5.5,1.,0.,5.5,2.,0.,6.,3.,0.,        3P      4
-6.,2.,0.,-6.,0.5,0.,4.,3.,0.,6.,0.5,0.,-4.;                           3P      5
124,6.12323399573677E-017,0.,-1.,3.,0.,1.,0.,0.,1.,0.,                 5P      6
6.12323399573677E-017,-3.;                                             5P      7
100,0.,3.,0.,6.5,0.,-0.5,0.;                                           7P      8
110,2.,0.,-5.,3.,0.,-5.5;                                              9P      9
124,-6.12323399573677E-017,-7.49879891330929E-033,-1.,                11P     10
0.500000000000001,1.22464679914735E-016,-1.,0.,                       11P     11
-6.12323399573678E-017,-1.,-1.22464679914735E-016,                    11P     12
6.12323399573677E-017,0.500000000000001;                              11P     13
100,0.,0.5,0.,5.5,0.,-4.5,0.;                                         13P     14
110,3.,0.,-4.,0.5,0.,-4.;                                             15P     15
110,2.,0.,5.,3.,0.,5.5;                                               17P     16
124,-6.12323399573677E-017,-7.49879891330929E-033,-1.,1.,             19P     17
1.22464679914735E-016,-1.,0.,-1.22464679914735E-016,-1.,              19P     18
-1.22464679914735E-016,6.12323399573677E-017,1.;                      19P     19
100,0.,1.,0.,6.5,0.,-4.5,0.;                                          21P     20
110,3.,0.,6.,2.,0.,6.;                                                23P     21
110,3.,0.,-3.5,0.,0.,-3.5;                                            25P     22
124,6.12323399573677E-017,0.,-1.,0.,0.,1.,0.,0.,1.,0.,                27P     23
6.12323399573677E-017,0.;                                             27P     24
100,0.,0.,0.,5.5,0.,-5.5,0.;                                          29P     25
124,6.12323399573677E-017,0.,-1.,3.,0.,1.,0.,0.,1.,0.,                31P     26
6.12323399573677E-017,-3.;                                            31P     27
100,0.,3.,0.,9.,0.,-3.,0.;                                            33P     28
110,3.,0.,4.,0.5,0.,4.;                                               35P     29
124,-6.12323399573677E-017,-7.49879891330929E-033,-1.,0.,             37P     30
1.22464679914735E-016,-1.,0.,0.,-1.,-1.22464679914735E-016,           37P     31
6.12323399573677E-017,0.;                                             37P     32
100,0.,0.,0.,3.5,0.,-3.5,0.;                                          39P     33
124,6.12323399573677E-017,0.,-1.,3.,0.,1.,0.,0.,1.,0.,                41P     34
6.12323399573677E-017,-3.;                                            41P     35
100,0.,3.,0.,7.,0.,-1.,0.;                                            43P     36
124,-6.12323399573677E-017,-7.49879891330929E-033,-1.,0.,             45P     37
1.22464679914735E-016,-1.,0.,0.,-1.,-1.22464679914735E-016,           45P     38
6.12323399573677E-017,0.;                                             45P     39
100,0.,0.,0.,5.5,0.,-5.5,0.;                                          47P     40
110,2.,0.,5.,0.5,0.,5.;                                               49P     41
124,6.12323399573677E-017,0.,-1.,0.500000000000001,0.,1.,0.,0.,       51P     42
1.,0.,6.12323399573677E-017,-0.500000000000001;                       51P     43
100,0.,0.5,0.,4.5,0.,-3.5,0.;                                         53P     44
124,6.12323399573677E-017,0.,-1.,1.,0.,1.,0.,0.,1.,0.,                55P     45
6.12323399573677E-017,-1.;                                            55P     46
100,0.,1.,0.,6.5,0.,-4.5,0.;                                          57P     47
124,6.12323399573677E-017,0.,-1.,2.,0.,1.,0.,0.,1.,0.,                59P     48
6.12323399573677E-017,-2.;                                            59P     49
100,0.,2.,0.,8.,0.,-4.,0.;                                            61P     50
110,1.,0.,5.5,0.,0.,5.5;                                              63P     51
110,1.,0.,-5.5,0.,0.,-5.5;                                            65P     52
110,3.,0.,-6.,2.,0.,-6.;                                              67P     53
110,3.,0.,3.5,0.,0.,3.5;                                              69P     54
124,6.12323399573677E-017,0.,-1.,2.,0.,1.,0.,0.,1.,0.,                71P     55
6.12323399573677E-017,-2.;                                            71P     56
100,0.,2.,0.,7.,0.,-3.,0.;                                            73P     57
110,2.,0.,-5.,0.5,0.,-5.;                                             75P     58
124,-6.12323399573677E-017,-7.49879891330929E-033,-1.,                77P     59
0.500000000000001,1.22464679914735E-016,-1.,0.,                       77P     60
-6.12323399573678E-017,-1.,-1.22464679914735E-016,                    77P     61
6.12323399573677E-017,0.500000000000001;                              77P     62
100,0.,0.5,0.,4.5,0.,-3.5,0.;                                         79P     63
124,6.12323399573677E-017,0.,-1.,0.500000000000001,0.,1.,0.,0.,       81P     64
1.,0.,6.12323399573677E-017,-0.500000000000001;                       81P     65
100,0.,0.5,0.,5.5,0.,-4.5,0.;                                         83P     66
124,-6.12323399573677E-017,4.27583144589696E-031,-1.,2.,              85P     67
-6.98296267768627E-015,-1.,0.,1.39659253553725E-014,-1.,              85P     68
6.98296267768627E-015,6.12323399573677E-017,2.;                       85P     69
100,0.,2.,0.,8.,0.,-4.,0.;                                            87P     70
110,1.,0.,5.5,2.,0.,6.;                                               89P     71
124,-6.12323399573677E-017,-7.49879891330929E-033,-1.,3.,             91P     72
1.22464679914735E-016,-1.,0.,-3.67394039744206E-016,-1.,              91P     73
-1.22464679914735E-016,6.12323399573677E-017,3.;                      91P     74
100,0.,3.,0.,6.5,0.,-0.5,0.;                                          93P     75
124,6.12323399573677E-017,0.,-1.,0.,0.,1.,0.,0.,1.,0.,                95P     76
6.12323399573677E-017,0.;                                             95P     77
100,0.,0.,0.,3.5,0.,-3.5,0.;                                          97P     78
110,1.,0.,-5.5,2.,0.,-6.;                                             99P     79
124,-6.12323399573677E-017,4.27583144589696E-031,-1.,3.,             101P     80
-6.98296267768627E-015,-1.,0.,2.09488880330588E-014,-1.,             101P     81
6.98296267768627E-015,6.12323399573677E-017,3.;                      101P     82
100,0.,3.,0.,8.5,0.,-2.5,0.;                                         103P     83
124,-6.12323399573677E-017,-7.49879891330929E-033,-1.,3.,            105P     84
1.22464679914735E-016,-1.,0.,-3.67394039744206E-016,-1.,             105P     85
-1.22464679914735E-016,6.12323399573677E-017,3.;                     105P     86
100,0.,3.,0.,9.,0.,-3.,0.;                                           107P     87
124,-6.12323399573677E-017,4.27583144589696E-031,-1.,2.,             109P     88
-6.98296267768627E-015,-1.,0.,1.39659253553725E-014,-1.,             109P     89
6.98296267768627E-015,6.12323399573677E-017,2.;                      109P     90
100,0.,2.,0.,7.,0.,-3.,0.;                                           111P     91
124,-6.12323399573677E-017,-7.49879891330929E-033,-1.,3.,            113P     92
1.22464679914735E-016,-1.,0.,-3.67394039744206E-016,-1.,             113P     93
-1.22464679914735E-016,6.12323399573677E-017,3.;                     113P     94
100,0.,3.,0.,7.,0.,-1.,0.;                                           115P     95
124,6.12323399573677E-017,0.,-1.,3.,0.,1.,0.,0.,1.,0.,               117P     96
6.12323399573677E-017,-3.;                                           117P     97
100,0.,3.,0.,8.5,0.,-2.5,0.;                                         119P     98
504,36,7,3,10,3,11,9,3,14,3,2,13,3,9,3,7,15,3,3,3,22,17,3,13,3,      121P     99
6,21,3,15,3,16,23,3,21,3,17,25,3,11,3,5,29,3,8,3,12,33,3,21,3,       121P    100
18,35,3,4,3,20,39,3,5,3,1,43,3,4,3,3,47,3,12,3,8,49,3,13,3,7,        121P    101
53,3,20,3,22,57,3,16,3,15,61,3,17,3,19,63,3,16,3,8,65,3,15,3,        121P    102
12,67,3,18,3,19,69,3,10,3,1,73,3,13,3,14,75,3,14,3,9,79,3,22,3,      121P    103
20,83,3,7,3,9,87,3,19,3,17,89,3,16,3,17,93,3,11,3,10,97,3,1,3,       121P    104
5,99,3,15,3,19,103,3,2,3,6,107,3,18,3,21,111,3,14,3,13,115,3,3,      121P    105
3,4,119,3,6,3,2;                                                     121P    106
110,0.,0.,0.,-1000.,0.,0.;                                           123P    107
110,3.,0.,3.5,0.,0.,3.5;                                             125P    108
120,123,125,0.,6.28318530717959;                                     127P    109
508,4,0,121,29,0,0,0,121,8,1,0,0,121,12,1,0,0,121,22,0,0;            129P    110
510,127,1,1,129;                                                     131P    111
110,0.,0.,0.,-1000.,0.,0.;                                           133P    112
110,0.5,0.,4.,3.,0.,4.;                                              135P    113
120,133,135,0.,6.28318530717959;                                     137P    114
508,4,0,121,13,1,0,0,121,4,1,0,0,121,16,0,0,0,121,11,0,0;            139P    115
510,137,1,1,139;                                                     141P    116
110,0.,0.,0.,-1000.,0.,0.;                                           143P    117
110,2.,0.,5.,0.5,0.,5.;                                              145P    118
120,143,145,0.,6.28318530717959;                                     147P    119
508,4,0,121,34,0,0,0,121,24,1,0,0,121,3,1,0,0,121,15,0,0;            149P    120
510,147,1,1,149;                                                     151P    121
110,-998.,0.,0.,2.,0.,0.;                                            153P    122
110,2.,0.,-5.,3.,0.,-5.5;                                            155P    123
120,153,155,0.,6.28318530717959;                                     157P    124
508,4,0,121,34,1,0,0,121,5,1,0,0,121,32,0,0,0,121,2,0,0;             159P    125
510,157,1,1,159;                                                     161P    126
110,0.,0.,0.,-1000.,0.,0.;                                           163P    127
110,2.,0.,6.,3.,0.,6.;                                               165P    128
120,163,165,0.,6.28318530717959;                                     167P    129
508,4,0,121,10,1,0,0,121,21,1,0,0,121,18,0,0,0,121,7,0,0;            169P    130
510,167,1,1,169;                                                     171P    131
110,-998.,0.,0.,2.,0.,0.;                                            173P    132
110,2.,0.,-6.,1.,0.,-5.5;                                            175P    133
120,173,175,0.,6.28318530717959;                                     177P    134
508,4,0,121,17,0,0,0,121,28,1,0,0,121,18,1,0,0,121,31,0,0;           179P    135
510,177,1,1,179;                                                     181P    136
110,0.,0.,0.,-1000.,0.,0.;                                           183P    137
110,0.,0.,5.5,1.,0.,5.5;                                             185P    138
120,183,185,0.,6.28318530717959;                                     187P    139
508,4,0,121,17,1,0,0,121,20,1,0,0,121,9,0,0,0,121,19,0,0;            189P    140
510,187,1,1,189;                                                     191P    141
116,0.,3.5,0.,;                                                      193P    142
123,1.,0.,0.;                                                        195P    143
123,0.,0.707106781,-0.707106781;                                     197P    144
190,193,195,197;                                                     199P    145
508,2,0,121,9,1,0,0,121,14,1,0;                                      201P    146
508,2,0,121,30,0,0,0,121,12,0,0;                                     203P    147
510,199,2,1,201,203;                                                 205P    148
110,0.,0.,0.,-1000.,0.,0.;                                           207P    149
110,0.,0.,5.5,1.,0.,5.5;                                             209P    150
120,207,209,0.,6.28318530717959;                                     211P    151
508,4,0,121,20,0,0,0,121,6,1,0,0,121,19,1,0,0,121,14,0,0;            213P    152
510,211,1,1,213;                                                     215P    153
110,-998.,0.,0.,2.,0.,0.;                                            217P    154
110,2.,0.,-6.,1.,0.,-5.5;                                            219P    155
120,217,219,0.,6.28318530717959;                                     221P    156
508,4,0,121,28,0,0,0,121,6,0,0,0,121,31,1,0,0,121,27,1,0;            223P    157
510,221,1,1,223;                                                     225P    158
110,0.,0.,0.,-1000.,0.,0.;                                           227P    159
110,2.,0.,6.,3.,0.,6.;                                               229P    160
120,227,229,0.,6.28318530717959;                                     231P    161
508,4,0,121,21,0,0,0,121,33,1,0,0,121,7,1,0,0,121,27,0,0;            233P    162
510,231,1,1,233;                                                     235P    163
116,3.,6.,0.,;                                                       237P    164
123,-1.,0.,0.;                                                       239P    165
123,0.,-0.707106781,0.707106781;                                     241P    166
190,237,239,241;                                                     243P    167
508,2,0,121,10,0,0,0,121,33,0,0;                                     245P    168
508,2,0,121,32,1,0,0,121,36,1,0;                                     247P    169
510,243,2,1,245,247;                                                 249P    170
110,-998.,0.,0.,2.,0.,0.;                                            251P    171
110,2.,0.,-5.,3.,0.,-5.5;                                            253P    172
120,251,253,0.,6.28318530717959;                                     255P    173
508,4,0,121,5,0,0,0,121,23,1,0,0,121,2,1,0,0,121,36,0,0;             257P    174
510,255,1,1,257;                                                     259P    175
110,0.,0.,0.,-1000.,0.,0.;                                           261P    176
110,2.,0.,5.,0.5,0.,5.;                                              263P    177
120,261,263,0.,6.28318530717959;                                     265P    178
508,4,0,121,24,0,0,0,121,23,0,0,0,121,15,1,0,0,121,26,1,0;           267P    179
510,265,1,1,267;                                                     269P    180
116,0.5,4.,0.,;                                                      271P    181
123,-1.,0.,0.;                                                       273P    182
123,0.,-0.707106781,0.707106781;                                     275P    183
190,271,273,275;                                                     277P    184
508,2,0,121,26,0,0,0,121,3,0,0;                                      279P    185
508,2,0,121,16,1,0,0,121,25,1,0;                                     281P    186
510,277,2,1,279,281;                                                 283P    187
110,0.,0.,0.,-1000.,0.,0.;                                           285P    188
110,0.5,0.,4.,3.,0.,4.;                                              287P    189
120,285,287,0.,6.28318530717959;                                     289P    190
508,4,0,121,4,0,0,0,121,35,1,0,0,121,11,1,0,0,121,25,0,0;            291P    191
510,289,1,1,291;                                                     293P    192
116,3.,4.,0.,;                                                       295P    193
123,-1.,0.,0.;                                                       297P    194
123,0.,-0.707106781,0.707106781;                                     299P    195
190,295,297,299;                                                     301P    196
508,2,0,121,13,0,0,0,121,35,0,0;                                     303P    197
508,2,0,121,1,1,0,0,121,29,1,0;                                      305P    198
510,301,2,1,303,305;                                                 307P    199
110,0.,0.,0.,-1000.,0.,0.;                                           309P    200
110,3.,0.,3.5,0.,0.,3.5;                                             311P    201
120,309,311,0.,6.28318530717959;                                     313P    202
508,4,0,121,8,0,0,0,121,1,0,0,0,121,22,1,0,0,121,30,1,0;             315P    203
510,313,1,1,315;                                                     317P    204
514,18,131,1,141,1,151,1,161,1,171,1,181,1,191,1,205,1,215,1,        319P    205
225,1,235,1,249,1,259,1,269,1,283,1,293,1,307,1,317,1;               319P    206
186,319,1,0;                                                         321P    207
S      1G      4D    322P    207                                        T      1
