SolidWorks IGES file using analytic representation for surfaces         S      1
1H,,1H;,29Hpion de positionnement.SLDPRT,78HF:\Travail\POLYTECH\RobotiquG      1
e\TP01\dossier étudiant\pion de positionnement.IGS,15HSolidWorks 2013,  G      2
15HSolidWorks 2013,32,308,15,308,15,29Hpion de positionnement.SLDPRT,   G      3
1.,2,2HMM,50,0.125,13H140701.132821,1E-008,499990.,6HLilian,,11,0,13H140G      4
701.132821;                                                             G      5
     314       1       0       0       0                        00000200D      1
     314       0       2       1       0                               0D      2
     502       2       0       0       0                        00010000D      3
     502       0       0       2       1                               0D      4
     100       4       0       0       0                        00010000D      5
     100       0       0       1       0                               0D      6
     124       5       0       0       0                        00000000D      7
     124       0       0       3       0                               0D      8
     100       8       0       0       0               7        00010000D      9
     100       0       0       1       0                               0D     10
     124       9       0       0       0                        00000000D     11
     124       0       0       4       0                               0D     12
     100      13       0       0       0              11        00010000D     13
     100       0       0       1       0                               0D     14
     124      14       0       0       0                        00000000D     15
     124       0       0       4       0                               0D     16
     100      18       0       0       0              15        00010000D     17
     100       0       0       1       0                               0D     18
     110      19       0       0       0                        01010000D     19
     110       0       0       1       0                               0D     20
     124      20       0       0       0                        00000000D     21
     124       0       0       2       0                               0D     22
     100      22       0       0       0              21        00010000D     23
     100       0       0       1       0                               0D     24
     124      23       0       0       0                        00000000D     25
     124       0       0       3       0                               0D     26
     100      26       0       0       0              25        00010000D     27
     100       0       0       1       0                               0D     28
     100      27       0       0       0                        00010000D     29
     100       0       0       1       0                               0D     30
     100      28       0       0       0                        00010000D     31
     100       0       0       1       0                               0D     32
     124      29       0       0       0                        00000000D     33
     124       0       0       3       0                               0D     34
     100      32       0       0       0              33        00010000D     35
     100       0       0       1       0                               0D     36
     110      33       0       0       0                        01010000D     37
     110       0       0       1       0                               0D     38
     124      34       0       0       0                        00000000D     39
     124       0       0       3       0                               0D     40
     100      37       0       0       0              39        00010000D     41
     100       0       0       1       0                               0D     42
     124      38       0       0       0                        00000000D     43
     124       0       0       3       0                               0D     44
     100      41       0       0       0              43        00010000D     45
     100       0       0       1       0                               0D     46
     100      42       0       0       0                        00010000D     47
     100       0       0       1       0                               0D     48
     504      43       0       0       0                        00010000D     49
     504       0       0       3       1                               0D     50
     110      46       0       0       0                        01010000D     51
     110       0       0       1       0                               0D     52
     124      47       0       0       0                        00000000D     53
     124       0       0       2       0                               0D     54
     100      49       0       0       0              53        01010000D     55
     100       0       0       1       0                               0D     56
     120      50       0       0       0                        01010000D     57
     120       0      -1       1       0                               0D     58
     508      51       0       0       0                        00010000D     59
     508       0       0       1       1                               0D     60
     510      52       0       0       0                        00010000D     61
     510       0      -1       1       1                               0D     62
     110      53       0       0       0                        01010000D     63
     110       0       0       1       0                               0D     64
     124      54       0       0       0                        00000000D     65
     124       0       0       3       0                               0D     66
     100      57       0       0       0              65        01010000D     67
     100       0       0       1       0                               0D     68
     120      58       0       0       0                        01010000D     69
     120       0      -1       1       0                               0D     70
     508      59       0       0       0                        00010000D     71
     508       0       0       1       1                               0D     72
     510      60       0       0       0                        00010000D     73
     510       0      -1       1       1                               0D     74
     110      61       0       0       0                        01010000D     75
     110       0       0       1       0                               0D     76
     110      62       0       0       0                        01010000D     77
     110       0       0       1       0                               0D     78
     120      63       0       0       0                        01010000D     79
     120       0      -1       1       0                               0D     80
     508      64       0       0       0                        00010000D     81
     508       0       0       1       1                               0D     82
     510      65       0       0       0                        00010000D     83
     510       0      -1       1       1                               0D     84
     110      66       0       0       0                        01010000D     85
     110       0       0       1       0                               0D     86
     110      67       0       0       0                        01010000D     87
     110       0       0       1       0                               0D     88
     120      68       0       0       0                        01010000D     89
     120       0      -1       1       0                               0D     90
     508      69       0       0       0                        00010000D     91
     508       0       0       1       1                               0D     92
     510      70       0       0       0                        00010000D     93
     510       0      -1       1       1                               0D     94
     116      71       0       0       0                        00010000D     95
     116       0       0       1       0                               0D     96
     123      72       0       0       0                        00010200D     97
     123       0       0       1       0                               0D     98
     123      73       0       0       0                        00010200D     99
     123       0       0       1       0                               0D    100
     190      74       0       0       0                        00010000D    101
     190       0      -1       1       1                               0D    102
     508      75       0       0       0                        00010000D    103
     508       0       0       1       1                               0D    104
     510      76       0       0       0                        00010000D    105
     510       0      -1       1       1                               0D    106
     116      77       0       0       0                        00010000D    107
     116       0       0       1       0                               0D    108
     123      78       0       0       0                        00010200D    109
     123       0       0       1       0                               0D    110
     123      79       0       0       0                        00010200D    111
     123       0       0       1       0                               0D    112
     190      80       0       0       0                        00010000D    113
     190       0      -1       1       1                               0D    114
     508      81       0       0       0                        00010000D    115
     508       0       0       1       1                               0D    116
     510      82       0       0       0                        00010000D    117
     510       0      -1       1       1                               0D    118
     110      83       0       0       0                        01010000D    119
     110       0       0       1       0                               0D    120
     124      84       0       0       0                        00000000D    121
     124       0       0       3       0                               0D    122
     100      87       0       0       0             121        01010000D    123
     100       0       0       1       0                               0D    124
     120      88       0       0       0                        01010000D    125
     120       0      -1       1       0                               0D    126
     508      89       0       0       0                        00010000D    127
     508       0       0       1       1                               0D    128
     510      90       0       0       0                        00010000D    129
     510       0      -1       1       1                               0D    130
     110      91       0       0       0                        01010000D    131
     110       0       0       1       0                               0D    132
     124      92       0       0       0                        00000000D    133
     124       0       0       2       0                               0D    134
     100      94       0       0       0             133        01010000D    135
     100       0       0       1       0                               0D    136
     120      95       0       0       0                        01010000D    137
     120       0      -1       1       0                               0D    138
     508      96       0       0       0                        00010000D    139
     508       0       0       1       1                               0D    140
     510      97       0       0       0                        00010000D    141
     510       0      -1       1       1                               0D    142
     514      98       0       0       0                        00010000D    143
     514       0       0       1       1                               0D    144
     186      99       0       0       0                        00000000D    145
     186       0       0       1       0                               0D    146
314,100.,0.,0.,;                                                       1P      1
502,8,-2.,0.,0.5,2.,0.,15.5,1.5,0.,0.,-1.5,0.,0.,-2.,0.,15.5,          3P      2
1.5,0.,16.,2.,0.,0.5,-1.5,0.,16.;                                      3P      3
100,16.,0.,0.,-1.5,0.,1.5,0.;                                          5P      4
124,1.,-7.105427357601E-015,0.,0.,-7.105427357601E-015,-1.,            7P      5
6.98296267768627E-015,-1.08235921504137E-013,                          7P      6
-4.96169340471387E-029,-6.98296267768627E-015,-1.,31.;                 7P      7
100,15.5,0.,0.,2.,0.,-2.,0.;                                           9P      8
124,1.40271576953299E-014,1.,0.,1.49999999999998,                     11P      9
-6.12323399573677E-017,8.58915688636046E-031,-1.,                     11P     10
0.500000000000001,-1.,1.40271576953299E-014,                          11P     11
6.12323399573677E-017,2.;                                             11P     12
100,0.5,1.5,0.,2.,0.,1.5,0.5;                                         13P     13
124,-1.,-7.22789203751574E-015,8.55166289179392E-031,                 15P     14
-1.32550774822807E-029,-7.22789203751574E-015,1.,                     15P     15
-6.98296267768627E-015,1.08235921504137E-013,                         15P     16
4.96169340471388E-029,-6.98296267768627E-015,-1.,31.;                 15P     17
100,15.5,0.,0.,2.,0.,-2.,0.;                                          17P     18
110,-2.,0.,15.5,-2.,0.,0.5;                                           19P     19
124,1.,0.,0.,0.,0.,6.12323399573677E-017,-1.,15.5,0.,1.,              21P     20
6.12323399573677E-017,15.5;                                           21P     21
100,15.5,1.5,0.,2.,0.,1.5,0.5;                                        23P     22
124,-1.,-6.98296267768627E-015,0.,0.,-6.98296267768627E-015,1.,       25P     23
-6.98296267768627E-015,0.,4.87617677579594E-029,                      25P     24
-6.98296267768627E-015,-1.,0.;                                        25P     25
100,0.,0.,0.,1.5,0.,-1.5,0.;                                          27P     26
100,0.5,0.,0.,-2.,0.,2.,0.;                                           29P     27
100,0.5,0.,0.,2.,0.,-2.,0.;                                           31P     28
124,1.,-7.39117827740205E-015,9.97694004042624E-031,0.,               33P     29
-7.39117827740205E-015,-1.,6.98296267768627E-015,0.,                  33P     30
-5.06146280511814E-029,-6.98296267768627E-015,-1.,0.;                 33P     31
100,0.,0.,0.,1.5,0.,-1.5,0.;                                          35P     32
110,2.,0.,15.5,2.,0.,0.5;                                             37P     33
124,-1.,7.105427357601E-015,1.22464679914735E-016,-3.,                39P     34
1.22464679914735E-016,-6.12323399573685E-017,1.,-15.5,                39P     35
7.105427357601E-015,1.,6.12323399573677E-017,15.5;                    39P     36
100,15.5,-1.5,0.,-1.,0.,-1.5,0.5;                                     41P     37
124,-6.12323399573676E-017,-1.,1.22464679914735E-016,-1.5,            43P     38
6.12323399573677E-017,1.22464679914735E-016,1.,-0.5,-1.,              43P     39
6.12323399573677E-017,6.12323399573677E-017,-1.;                      43P     40
100,0.5,-1.5,0.,-1.,0.,-1.5,0.5;                                      45P     41
100,16.,0.,0.,1.5,0.,-1.5,0.;                                         47P     42
504,14,5,3,8,3,6,9,3,2,3,5,13,3,3,3,7,17,3,5,3,2,19,3,5,3,1,23,       49P     43
3,2,3,6,27,3,4,3,3,29,3,1,3,7,31,3,7,3,1,35,3,3,3,4,37,3,2,3,7,       49P     44
41,3,5,3,8,45,3,4,3,1,47,3,6,3,8;                                     49P     45
110,0.,0.,0.5,0.,0.,1000.5;                                           51P     46
124,1.,0.,0.,0.,0.,6.12323399573677E-017,1.,-0.5,0.,-1.,              53P     47
6.12323399573677E-017,0.5;                                            53P     48
100,0.5,1.5,0.,2.,0.,1.5,0.5;                                         55P     49
120,51,55,0.,6.28318530717959;                                        57P     50
508,4,0,49,7,0,0,0,49,13,1,0,0,49,9,0,0,0,49,3,0,0;                   59P     51
510,57,1,1,59;                                                        61P     52
110,0.,0.,15.5,0.,0.,1015.5;                                          63P     53
124,1.40271576953299E-014,1.,0.,1.49999999999998,                     65P     54
-6.12323399573677E-017,8.58915688636046E-031,1.,-15.5,1.,             65P     55
-1.40271576953299E-014,6.12323399573677E-017,14.;                     65P     56
100,15.5,1.5,0.,2.,0.,1.5,0.5;                                        67P     57
120,63,67,0.,6.28318530717959;                                        69P     58
508,4,0,49,4,0,0,0,49,12,1,0,0,49,14,0,0,0,49,6,0,0;                  71P     59
510,69,1,1,71;                                                        73P     60
110,0.,0.,16.,0.,0.,-984.;                                            75P     61
110,-2.,0.,0.5,-2.,0.,15.5;                                           77P     62
120,75,77,0.,6.28318530717959;                                        79P     63
508,4,0,49,4,1,0,0,49,11,1,0,0,49,9,1,0,0,49,5,0,0;                   81P     64
510,79,1,1,81;                                                        83P     65
110,0.,0.,16.,0.,0.,-984.;                                            85P     66
110,-2.,0.,0.5,-2.,0.,15.5;                                           87P     67
120,85,87,0.,6.28318530717959;                                        89P     68
508,4,0,49,11,0,0,0,49,2,1,0,0,49,5,1,0,0,49,8,1,0;                   91P     69
510,89,1,1,91;                                                        93P     70
116,0.,0.,16.,;                                                       95P     71
123,0.,0.,1.;                                                         97P     72
123,0.707106781,-0.707106781,0.;                                      99P     73
190,95,97,99;                                                        101P     74
508,2,0,49,14,1,0,0,49,1,1,0;                                        103P     75
510,101,1,1,103;                                                     105P     76
116,0.,0.,0.,;                                                       107P     77
123,0.,0.,1.;                                                        109P     78
123,0.707106781,-0.707106781,0.;                                     111P     79
190,107,109,111;                                                     113P     80
508,2,0,49,10,1,0,0,49,7,1,0;                                        115P     81
510,113,1,1,115;                                                     117P     82
110,0.,0.,15.5,0.,0.,1015.5;                                         119P     83
124,1.40271576953299E-014,1.,0.,1.49999999999998,                    121P     84
-6.12323399573677E-017,8.58915688636046E-031,1.,-15.5,1.,            121P     85
-1.40271576953299E-014,6.12323399573677E-017,14.;                    121P     86
100,15.5,1.5,0.,2.,0.,1.5,0.5;                                       123P     87
120,119,123,0.,6.28318530717959;                                     125P     88
508,4,0,49,12,0,0,0,49,2,0,0,0,49,6,1,0,0,49,1,0,0;                  127P     89
510,125,1,1,127;                                                     129P     90
110,0.,0.,0.5,0.,0.,1000.5;                                          131P     91
124,1.,0.,0.,0.,0.,6.12323399573677E-017,1.,-0.5,0.,-1.,             133P     92
6.12323399573677E-017,0.5;                                           133P     93
100,0.5,1.5,0.,2.,0.,1.5,0.5;                                        135P     94
120,131,135,0.,6.28318530717959;                                     137P     95
508,4,0,49,13,0,0,0,49,10,0,0,0,49,3,1,0,0,49,8,0,0;                 139P     96
510,137,1,1,139;                                                     141P     97
514,8,61,1,73,1,83,1,93,1,105,1,117,1,129,1,141,1;                   143P     98
186,143,1,0;                                                         145P     99
S      1G      5D    146P     99                                        T      1
