SolidWorks IGES file using analytic representation for surfaces         S      1
1H,,1H;,25Hsegment magnetique.SLDPRT,74HF:\Travail\POLYTECH\Robotique\TPG      1
01\dossier étudiant\segment magnetique.IGS,15HSolidWorks 2013,15HSolidWoG      2
rks 2013,32,308,15,308,15,25Hsegment magnetique.SLDPRT,1.,2,2HMM,50,    G      3
0.125,13H140701.132955,1E-008,499990.,6HLilian,,11,0,13H140701.132955;  G      4
     314       1       0       0       0                        00000200D      1
     314       0       0       1       0                               0D      2
     502       2       0       0       0                        00010000D      3
     502       0       0       2       1                               0D      4
     124       4       0       0       0                        00000000D      5
     124       0       0       4       0                               0D      6
     100       8       0       0       0               5        00010000D      7
     100       0       0       1       0                               0D      8
     124       9       0       0       0                        00000000D      9
     124       0       0       3       0                               0D     10
     100      12       0       0       0               9        00010000D     11
     100       0       0       1       0                               0D     12
     124      13       0       0       0                        00000000D     13
     124       0       0       3       0                               0D     14
     100      16       0       0       0              13        00010000D     15
     100       0       0       1       0                               0D     16
     124      17       0       0       0                        00000000D     17
     124       0       0       3       0                               0D     18
     100      20       0       0       0              17        00010000D     19
     100       0       0       1       0                               0D     20
     110      21       0       0       0                        01010000D     21
     110       0       0       1       0                               0D     22
     124      22       0       0       0                        00000000D     23
     124       0       0       4       0                               0D     24
     100      26       0       0       0              23        00010000D     25
     100       0       0       1       0                               0D     26
     124      27       0       0       0                        00000000D     27
     124       0       0       3       0                               0D     28
     100      30       0       0       0              27        00010000D     29
     100       0       0       1       0                               0D     30
     110      31       0       0       0                        01010000D     31
     110       0       0       1       0                               0D     32
     110      32       0       0       0                        01010000D     33
     110       0       0       1       0                               0D     34
     124      33       0       0       0                        00000000D     35
     124       0       0       3       0                               0D     36
     100      36       0       0       0              35        00010000D     37
     100       0       0       1       0                               0D     38
     110      37       0       0       0                        01010000D     39
     110       0       0       1       0                               0D     40
     124      38       0       0       0                        00000000D     41
     124       0       0       3       0                               0D     42
     100      41       0       0       0              41        00010000D     43
     100       0       0       1       0                               0D     44
     504      42       0       0       0                        00010000D     45
     504       0       0       3       1                               0D     46
     110      45       0       0       0                        01010000D     47
     110       0       0       1       0                               0D     48
     110      46       0       0       0                        01010000D     49
     110       0       0       1       0                               0D     50
     120      47       0       0       0                        01010000D     51
     120       0      -1       1       0                               0D     52
     508      48       0       0       0                        00010000D     53
     508       0       0       1       1                               0D     54
     510      49       0       0       0                        00010000D     55
     510       0      -1       1       1                               0D     56
     110      50       0       0       0                        01010000D     57
     110       0       0       1       0                               0D     58
     110      51       0       0       0                        01010000D     59
     110       0       0       1       0                               0D     60
     120      52       0       0       0                        01010000D     61
     120       0      -1       1       0                               0D     62
     508      53       0       0       0                        00010000D     63
     508       0       0       1       1                               0D     64
     510      54       0       0       0                        00010000D     65
     510       0      -1       1       1                               0D     66
     110      55       0       0       0                        01010000D     67
     110       0       0       1       0                               0D     68
     110      56       0       0       0                        01010000D     69
     110       0       0       1       0                               0D     70
     120      57       0       0       0                        01010000D     71
     120       0      -1       1       0                               0D     72
     508      58       0       0       0                        00010000D     73
     508       0       0       1       1                               0D     74
     510      59       0       0       0                        00010000D     75
     510       0      -1       1       1                               0D     76
     116      60       0       0       0                        00010000D     77
     116       0       0       1       0                               0D     78
     123      61       0       0       0                        00010200D     79
     123       0       0       1       0                               0D     80
     123      62       0       0       0                        00010200D     81
     123       0       0       1       0                               0D     82
     190      63       0       0       0                        00010000D     83
     190       0      -1       1       1                               0D     84
     508      64       0       0       0                        00010000D     85
     508       0       0       1       1                               0D     86
     508      65       0       0       0                        00010000D     87
     508       0       0       1       1                               0D     88
     510      66       0       0       0                        00010000D     89
     510       0      -1       1       1                               0D     90
     110      67       0       0       0                        01010000D     91
     110       0       0       1       0                               0D     92
     110      68       0       0       0                        01010000D     93
     110       0       0       1       0                               0D     94
     120      69       0       0       0                        01010000D     95
     120       0      -1       1       0                               0D     96
     508      70       0       0       0                        00010000D     97
     508       0       0       1       1                               0D     98
     510      71       0       0       0                        00010000D     99
     510       0      -1       1       1                               0D    100
     116      72       0       0       0                        00010000D    101
     116       0       0       1       0                               0D    102
     123      73       0       0       0                        00010200D    103
     123       0       0       1       0                               0D    104
     123      74       0       0       0                        00010200D    105
     123       0       0       1       0                               0D    106
     190      75       0       0       0                        00010000D    107
     190       0      -1       1       1                               0D    108
     508      76       0       0       0                        00010000D    109
     508       0       0       1       1                               0D    110
     508      77       0       0       0                        00010000D    111
     508       0       0       1       1                               0D    112
     510      78       0       0       0                        00010000D    113
     510       0      -1       1       1                               0D    114
     514      79       0       0       0                        00010000D    115
     514       0       0       1       1                               0D    116
     186      80       0       0       0                        00000000D    117
     186       0       0       1       0                               0D    118
314,100.,50.1960784313725,0.,;                                         1P      1
502,8,-16.,3.,16.,-16.,3.,-16.,-16.,3.,-12.,-16.,0.,12.,-16.,          3P      2
0.,-12.,-16.,3.,12.,-16.,0.,-16.,-16.,0.,16.;                          3P      3
124,1.40271576953299E-014,1.,0.,-15.9999999999998,                     5P      4
-6.12323399573677E-017,8.58915688636046E-031,-1.,                      5P      5
-5.7502069982541E-015,-1.,1.40271576953299E-014,                       5P      6
6.12323399573677E-017,-16.;                                            5P      7
100,0.,-16.,0.,-4.,0.,-28.,0.;                                         7P      8
124,6.12323399573677E-017,-1.,0.,-13.,6.12323399573677E-017,           9P      9
3.74939945665464E-033,-1.,3.,1.,6.12323399573677E-017,                 9P     10
6.12323399573677E-017,16.;                                             9P     11
100,0.,-16.,3.,-4.,3.,-28.,3.;                                        11P     12
124,1.40271576953299E-014,1.,0.,-18.9999999999998,                    13P     13
-6.12323399573677E-017,8.58915688636046E-031,-1.,3.,-1.,              13P     14
1.40271576953299E-014,6.12323399573677E-017,-16.;                     13P     15
100,0.,-16.,3.,-4.,3.,-28.,3.;                                        15P     16
124,2.83276944882399E-016,-1.,0.,-16.,6.12323399573677E-017,          17P     17
1.73457101911236E-032,-1.,9.79717439317883E-016,1.,                   17P     18
2.83276944882399E-016,6.12323399573677E-017,16.;                      17P     19
100,0.,-16.,0.,0.,0.,-32.,0.;                                         19P     20
110,-16.,3.,-16.,-16.,0.,-16.;                                        21P     21
124,1.40271576953299E-014,1.,0.,-15.9999999999998,                    23P     22
-6.12323399573677E-017,8.58915688636046E-031,-1.,                     23P     23
-9.79717439317883E-016,-1.,1.40271576953299E-014,                     23P     24
6.12323399573677E-017,-16.;                                           23P     25
100,0.,-16.,0.,0.,0.,-32.,0.;                                         25P     26
124,6.12323399573677E-017,-1.,0.,-16.,6.12323399573677E-017,          27P     27
3.74939945665464E-033,-1.,-3.79077211961834E-015,1.,                  27P     28
6.12323399573677E-017,6.12323399573677E-017,16.;                      27P     29
100,0.,-16.,0.,-4.,0.,-28.,0.;                                        29P     30
110,-16.,3.,-12.,-16.,0.,-12.;                                        31P     31
110,-16.,3.,16.,-16.,0.,16.;                                          33P     32
124,1.40271576953299E-014,1.,0.,-18.9999999999998,                    35P     33
-6.12323399573677E-017,8.58915688636046E-031,-1.,3.,-1.,              35P     34
1.40271576953299E-014,6.12323399573677E-017,-16.;                     35P     35
100,0.,-16.,3.,0.,3.,-32.,3.;                                         37P     36
110,-16.,3.,12.,-16.,0.,12.;                                          39P     37
124,2.83276944882399E-016,-1.,0.,-13.,6.12323399573677E-017,          41P     38
1.73457101911236E-032,-1.,3.,1.,2.83276944882399E-016,                41P     39
6.12323399573677E-017,16.;                                            41P     40
100,0.,-16.,3.,0.,3.,-32.,3.;                                         43P     41
504,12,7,3,5,3,4,11,3,6,3,3,15,3,3,3,6,19,3,8,3,7,21,3,2,3,7,         45P     42
25,3,7,3,8,29,3,4,3,5,31,3,3,3,5,33,3,1,3,8,37,3,2,3,1,39,3,6,        45P     43
3,4,43,3,1,3,2;                                                       45P     44
110,-16.,0.,0.,-16.,-1000.,0.;                                        47P     45
110,-16.,3.,-12.,-16.,0.,-12.;                                        49P     46
120,47,49,0.,6.28318530717959;                                        51P     47
508,4,0,45,2,0,0,0,45,11,1,0,0,45,7,1,0,0,45,8,0,0;                   53P     48
510,51,1,1,53;                                                        55P     49
110,-16.,0.,0.,-16.,-1000.,0.;                                        57P     50
110,-16.,0.,-16.,-16.,3.,-16.;                                        59P     51
120,57,59,0.,6.28318530717959;                                        61P     52
508,4,0,45,10,1,0,0,45,9,1,0,0,45,6,0,0,0,45,5,0,0;                   63P     53
510,61,1,1,63;                                                        65P     54
110,-16.,0.,0.,-16.,-1000.,0.;                                        67P     55
110,-16.,0.,-16.,-16.,3.,-16.;                                        69P     56
120,67,69,0.,6.28318530717959;                                        71P     57
508,4,0,45,9,0,0,0,45,12,1,0,0,45,5,1,0,0,45,4,0,0;                   73P     58
510,71,1,1,73;                                                        75P     59
116,0.,0.,0.,;                                                        77P     60
123,0.,1.,0.;                                                         79P     61
123,-0.707106781,0.,0.707106781;                                      81P     62
190,77,79,81;                                                         83P     63
508,2,0,45,6,1,0,0,45,4,1,0;                                          85P     64
508,2,0,45,1,0,0,0,45,7,0,0;                                          87P     65
510,83,2,1,85,87;                                                     89P     66
110,-16.,0.,0.,-16.,-1000.,0.;                                        91P     67
110,-16.,3.,-12.,-16.,0.,-12.;                                        93P     68
120,91,93,0.,6.28318530717959;                                        95P     69
508,4,0,45,11,0,0,0,45,3,0,0,0,45,8,1,0,0,45,1,1,0;                   97P     70
510,95,1,1,97;                                                        99P     71
116,-4.,3.,0.,;                                                      101P     72
123,0.,-1.,0.;                                                       103P     73
123,0.707106781,0.,-0.707106781;                                     105P     74
190,101,103,105;                                                     107P     75
508,2,0,45,10,0,0,0,45,12,0,0;                                       109P     76
508,2,0,45,3,1,0,0,45,2,1,0;                                         111P     77
510,107,2,1,109,111;                                                 113P     78
514,6,55,1,65,1,75,1,89,1,99,1,113,1;                                115P     79
186,115,1,0;                                                         117P     80
S      1G      4D    118P     80                                        T      1
